<svg xmlns="http://www.w3.org/2000/svg" xmlns:xlink="http://www.w3.org/1999/xlink" width="45.28" height="45.3" viewBox="0 0 45.28 45.3"><defs><style>.cls-1{fill:#5447a1;}.cls-2{opacity:0.6;}.cls-3{fill:gray;}.cls-4{fill:#0d0d0d;}.cls-5{fill:#666;}.cls-6{fill:#1a1a1a;}.cls-7{fill:#4d4d4d;}.cls-8{fill:#262626;}.cls-9{fill:#404040;}.cls-10{fill:#333;}.cls-11{fill:#999;}.cls-12{fill:#979797;}.cls-13{fill:#949494;}.cls-14{fill:#929292;}.cls-15{fill:#909090;}.cls-16{fill:#8d8d8d;}.cls-17{fill:#8b8b8b;}.cls-18{fill:#898989;}.cls-19{fill:#868686;}.cls-20{fill:#848484;}.cls-21{fill:#828282;}.cls-22{fill:#010101;}.cls-23{fill:#020202;}.cls-24{fill:#030303;}.cls-25{fill:#050505;}.cls-26{fill:#060606;}.cls-27{fill:#070707;}.cls-28{fill:#080808;}.cls-29{fill:#090909;}.cls-30{fill:#0a0a0a;}.cls-31{fill:#0c0c0c;}.cls-32{fill:#7d7d7d;}.cls-33{fill:#7b7b7b;}.cls-34{fill:#797979;}.cls-35{fill:#767676;}.cls-36{fill:#747474;}.cls-37{fill:#727272;}.cls-38{fill:#6f6f6f;}.cls-39{fill:#6d6d6d;}.cls-40{fill:#6b6b6b;}.cls-41{fill:#686868;}.cls-42{fill:#0e0e0e;}.cls-43{fill:#0f0f0f;}.cls-44{fill:#101010;}.cls-45{fill:#111;}.cls-46{fill:#131313;}.cls-47{fill:#141414;}.cls-48{fill:#151515;}.cls-49{fill:#161616;}.cls-50{fill:#171717;}.cls-51{fill:#181818;}.cls-52{fill:#656565;}.cls-53{fill:#646464;}.cls-54{fill:#636363;}.cls-55{fill:#616161;}.cls-56{fill:#606060;}.cls-57{fill:#5f5f5f;}.cls-58{fill:#5e5e5e;}.cls-59{fill:#5d5d5d;}.cls-60{fill:#5c5c5c;}.cls-61{fill:#5a5a5a;}.cls-62{fill:#595959;}.cls-63{fill:#4e4e4e;}.cls-64{fill:#4f4f4f;}.cls-65{fill:#505050;}.cls-66{fill:#515151;}.cls-67{fill:#525252;}.cls-68{fill:#535353;}.cls-69{fill:#555;}.cls-70{fill:#565656;}.cls-71{fill:#575757;}.cls-72{fill:#585858;}.cls-73{fill:#1b1b1b;}.cls-74{fill:#1c1c1c;}.cls-75{fill:#1d1d1d;}.cls-76{fill:#1e1e1e;}.cls-77{fill:#1f1f1f;}.cls-78{fill:#202020;}.cls-79{fill:#222;}.cls-80{fill:#232323;}.cls-81{fill:#242424;}.cls-82{fill:#252525;}.cls-83{fill:#414141;}.cls-84{fill:#424242;}.cls-85{fill:#434343;}.cls-86{fill:#444;}.cls-87{fill:#464646;}.cls-88{fill:#474747;}.cls-89{fill:#484848;}.cls-90{fill:#494949;}.cls-91{fill:#4a4a4a;}.cls-92{fill:#4b4b4b;}.cls-93{fill:#272727;}.cls-94{fill:#292929;}.cls-95{fill:#2a2a2a;}.cls-96{fill:#2b2b2b;}.cls-97{fill:#2c2c2c;}.cls-98{fill:#2d2d2d;}.cls-99{fill:#2e2e2e;}.cls-100{fill:#303030;}.cls-101{fill:#313131;}.cls-102{fill:#323232;}.cls-103{fill:#343434;}.cls-104{fill:#353535;}.cls-105{fill:#363636;}.cls-106{fill:#383838;}.cls-107{fill:#393939;}.cls-108{fill:#3a3a3a;}.cls-109{fill:#3b3b3b;}.cls-110{fill:#3c3c3c;}.cls-111{fill:#3d3d3d;}.cls-112{fill:#3f3f3f;}.cls-113{fill:#9e9e9e;}.cls-114{fill:#a2a2a2;}.cls-115{fill:#a7a7a7;}.cls-116{fill:#acacac;}.cls-117{fill:#b0b0b0;}.cls-118{fill:#b5b5b5;}.cls-119{fill:#bababa;}.cls-120{fill:#bfbfbf;}.cls-121{fill:#c3c3c3;}.cls-122{fill:#c8c8c8;}.cls-123{fill:#cdcdcd;}.cls-124{fill:#d1d1d1;}.cls-125{fill:#d6d6d6;}.cls-126{fill:#dbdbdb;}.cls-127{fill:#dfdfdf;}.cls-128{fill:#e4e4e4;}.cls-129{fill:#e9e9e9;}.cls-130{fill:#eee;}.cls-131{fill:#f2f2f2;}.cls-132{fill:#0b0b0b;}.cls-133{fill:#282828;}.cls-134{fill:#858585;}.cls-135{fill:#8a8a8a;}.cls-136{fill:#959595;}.cls-137{fill:#9a9a9a;}.cls-138{fill:#a0a0a0;}.cls-139{fill:#a5a5a5;}.cls-140{fill:#aaa;}.cls-141{fill:#bbb;}.cls-142{fill:silver;}.cls-143{fill:#c5c5c5;}.cls-144{fill:#cbcbcb;}.cls-145{fill:#d0d0d0;}.cls-146{fill:#d5d5d5;}.cls-147{fill:#e0e0e0;}.cls-148{fill:#e6e6e6;}.cls-149{fill:#212121;}.cls-150{fill:#6c6c6c;}.cls-151{fill:#787878;}.cls-152{fill:#7e7e7e;}.cls-153{fill:#969696;}.cls-154{fill:#9c9c9c;}.cls-155{fill:#a8a8a8;}.cls-156{fill:#aeaeae;}.cls-157{fill:#c1c1c1;}.cls-158{fill:#c7c7c7;}.cls-159{fill:#d3d3d3;}.cls-160{fill:#d9d9d9;}.cls-161{fill:#3e3e3e;}.cls-162{fill:#626262;}.cls-163{fill:#717171;}.cls-164{fill:#777;}.cls-165{fill:#b4b4b4;}.cls-166{fill:#c6c6c6;}.cls-167{fill:#ccc;}.cls-168{fill:#4c4c4c;}.cls-169{fill:#838383;}.cls-170{fill:#8f8f8f;}.cls-171{fill:#9b9b9b;}.cls-172{fill:#a1a1a1;}.cls-173{fill:#adadad;}.cls-174{fill:#b3b3b3;}.cls-175{fill:#b9b9b9;}.cls-176{fill:#696969;}.cls-177{fill:#6e6e6e;}.cls-178{fill:#737373;}.cls-179{fill:#8e8e8e;}.cls-180{fill:#6a6a6a;}.cls-181{fill:#707070;}.cls-182{fill:#7c7c7c;}.cls-183{fill:#888;}.cls-184{fill:#a6a6a6;}.cls-185{fill:url(#linear-gradient);}.cls-186{fill:url(#linear-gradient-2);}.cls-187{fill:url(#linear-gradient-3);}.cls-188{fill:url(#linear-gradient-4);}.cls-189{fill:url(#linear-gradient-5);}.cls-190{fill:url(#linear-gradient-6);}.cls-191{fill:url(#linear-gradient-7);}.cls-192{fill:url(#linear-gradient-8);}.cls-193{fill:url(#linear-gradient-9);}.cls-194{fill:url(#linear-gradient-10);}.cls-195{fill:url(#linear-gradient-11);}.cls-196{fill:url(#linear-gradient-12);}.cls-197{fill:url(#linear-gradient-13);}.cls-198{fill:url(#linear-gradient-14);}.cls-199{fill:url(#linear-gradient-15);}.cls-200{fill:url(#linear-gradient-16);}.cls-201{fill:url(#linear-gradient-17);}.cls-202{fill:url(#linear-gradient-18);}.cls-203{fill:url(#linear-gradient-19);}.cls-204{fill:url(#linear-gradient-20);}.cls-205{fill:url(#linear-gradient-21);}.cls-206{fill:url(#linear-gradient-22);}.cls-207{fill:url(#linear-gradient-23);}.cls-208{fill:url(#linear-gradient-24);}.cls-209{fill:url(#linear-gradient-25);}.cls-210{fill:url(#linear-gradient-26);}.cls-211{fill:#fff;}</style><linearGradient id="linear-gradient" x1="22.62" y1="45.06" x2="22.62" y2="5.69" gradientTransform="matrix(1, 0, 0, -1, 0, 48)" gradientUnits="userSpaceOnUse"><stop offset="0" stop-color="#fff"/><stop offset="1"/></linearGradient><linearGradient id="linear-gradient-2" x1="22.62" y1="44.97" x2="22.62" y2="5.78" gradientTransform="matrix(1, 0, 0, -1, 0, 48)" gradientUnits="userSpaceOnUse"><stop offset="0" stop-color="#fefefe"/><stop offset="1" stop-color="#090909"/></linearGradient><linearGradient id="linear-gradient-3" x1="22.62" y1="44.87" x2="22.62" y2="5.86" gradientTransform="matrix(1, 0, 0, -1, 0, 48)" gradientUnits="userSpaceOnUse"><stop offset="0" stop-color="#fdfdfd"/><stop offset="1" stop-color="#121212"/></linearGradient><linearGradient id="linear-gradient-4" x1="22.59" y1="44.77" x2="22.59" y2="5.98" gradientTransform="matrix(1, 0, 0, -1, 0, 48)" gradientUnits="userSpaceOnUse"><stop offset="0" stop-color="#fcfcfc"/><stop offset="1" stop-color="#1a1a1a"/></linearGradient><linearGradient id="linear-gradient-5" x1="22.64" y1="44.71" x2="22.64" y2="6.08" gradientTransform="matrix(1, 0, 0, -1, 0, 48)" gradientUnits="userSpaceOnUse"><stop offset="0" stop-color="#fbfbfb"/><stop offset="1" stop-color="#232323"/></linearGradient><linearGradient id="linear-gradient-6" x1="22.62" y1="44.58" x2="22.62" y2="6.14" gradientTransform="matrix(1, 0, 0, -1, 0, 48)" gradientUnits="userSpaceOnUse"><stop offset="0" stop-color="#fafafa"/><stop offset="1" stop-color="#2c2c2c"/></linearGradient><linearGradient id="linear-gradient-7" x1="22.62" y1="44.5" x2="22.62" y2="6.25" gradientTransform="matrix(1, 0, 0, -1, 0, 48)" gradientUnits="userSpaceOnUse"><stop offset="0" stop-color="#f9f9f9"/><stop offset="1" stop-color="#353535"/></linearGradient><linearGradient id="linear-gradient-8" x1="22.61" y1="44.41" x2="22.61" y2="6.36" gradientTransform="matrix(1, 0, 0, -1, 0, 48)" gradientUnits="userSpaceOnUse"><stop offset="0" stop-color="#f8f8f8"/><stop offset="1" stop-color="#3e3e3e"/></linearGradient><linearGradient id="linear-gradient-9" x1="22.62" y1="44.31" x2="22.62" y2="6.42" gradientTransform="matrix(1, 0, 0, -1, 0, 48)" gradientUnits="userSpaceOnUse"><stop offset="0" stop-color="#f7f7f7"/><stop offset="1" stop-color="#474747"/></linearGradient><linearGradient id="linear-gradient-10" x1="22.62" y1="44.21" x2="22.62" y2="6.53" gradientTransform="matrix(1, 0, 0, -1, 0, 48)" gradientUnits="userSpaceOnUse"><stop offset="0" stop-color="#f6f6f6"/><stop offset="1" stop-color="#4f4f4f"/></linearGradient><linearGradient id="linear-gradient-11" x1="22.63" y1="44.12" x2="22.63" y2="6.61" gradientTransform="matrix(1, 0, 0, -1, 0, 48)" gradientUnits="userSpaceOnUse"><stop offset="0" stop-color="#f5f5f5"/><stop offset="1" stop-color="#585858"/></linearGradient><linearGradient id="linear-gradient-12" x1="22.65" y1="44.01" x2="22.65" y2="6.7" gradientTransform="matrix(1, 0, 0, -1, 0, 48)" gradientUnits="userSpaceOnUse"><stop offset="0" stop-color="#f4f4f4"/><stop offset="1" stop-color="#616161"/></linearGradient><linearGradient id="linear-gradient-13" x1="22.63" y1="43.93" x2="22.63" y2="6.81" gradientTransform="matrix(1, 0, 0, -1, 0, 48)" gradientUnits="userSpaceOnUse"><stop offset="0" stop-color="#f3f3f3"/><stop offset="1" stop-color="#6a6a6a"/></linearGradient><linearGradient id="linear-gradient-14" x1="22.61" y1="43.84" x2="22.61" y2="6.92" gradientTransform="matrix(1, 0, 0, -1, 0, 48)" gradientUnits="userSpaceOnUse"><stop offset="0" stop-color="#f2f2f2"/><stop offset="1" stop-color="#737373"/></linearGradient><linearGradient id="linear-gradient-15" x1="22.62" y1="43.75" x2="22.62" y2="7" gradientTransform="matrix(1, 0, 0, -1, 0, 48)" gradientUnits="userSpaceOnUse"><stop offset="0" stop-color="#f1f1f1"/><stop offset="1" stop-color="#7c7c7c"/></linearGradient><linearGradient id="linear-gradient-16" x1="22.6" y1="43.67" x2="22.6" y2="7.1" gradientTransform="matrix(1, 0, 0, -1, 0, 48)" gradientUnits="userSpaceOnUse"><stop offset="0" stop-color="#f0f0f0"/><stop offset="1" stop-color="#848484"/></linearGradient><linearGradient id="linear-gradient-17" x1="22.61" y1="43.56" x2="22.61" y2="7.2" gradientTransform="matrix(1, 0, 0, -1, 0, 48)" gradientUnits="userSpaceOnUse"><stop offset="0" stop-color="#efefef"/><stop offset="1" stop-color="#8d8d8d"/></linearGradient><linearGradient id="linear-gradient-18" x1="22.63" y1="43.45" x2="22.63" y2="7.27" gradientTransform="matrix(1, 0, 0, -1, 0, 48)" gradientUnits="userSpaceOnUse"><stop offset="0" stop-color="#eee"/><stop offset="1" stop-color="#969696"/></linearGradient><linearGradient id="linear-gradient-19" x1="22.63" y1="43.36" x2="22.63" y2="7.35" gradientTransform="matrix(1, 0, 0, -1, 0, 48)" gradientUnits="userSpaceOnUse"><stop offset="0" stop-color="#ededed"/><stop offset="1" stop-color="#9f9f9f"/></linearGradient><linearGradient id="linear-gradient-20" x1="22.64" y1="43.26" x2="22.64" y2="7.46" gradientTransform="matrix(1, 0, 0, -1, 0, 48)" gradientUnits="userSpaceOnUse"><stop offset="0" stop-color="#ececec"/><stop offset="1" stop-color="#a8a8a8"/></linearGradient><linearGradient id="linear-gradient-21" x1="22.62" y1="43.18" x2="22.62" y2="7.56" gradientTransform="matrix(1, 0, 0, -1, 0, 48)" gradientUnits="userSpaceOnUse"><stop offset="0" stop-color="#ebebeb"/><stop offset="1" stop-color="#b1b1b1"/></linearGradient><linearGradient id="linear-gradient-22" x1="22.6" y1="43.08" x2="22.6" y2="7.65" gradientTransform="matrix(1, 0, 0, -1, 0, 48)" gradientUnits="userSpaceOnUse"><stop offset="0" stop-color="#eaeaea"/><stop offset="1" stop-color="#b9b9b9"/></linearGradient><linearGradient id="linear-gradient-23" x1="22.65" y1="42.99" x2="22.65" y2="7.75" gradientTransform="matrix(1, 0, 0, -1, 0, 48)" gradientUnits="userSpaceOnUse"><stop offset="0" stop-color="#e9e9e9"/><stop offset="1" stop-color="#c2c2c2"/></linearGradient><linearGradient id="linear-gradient-24" x1="22.61" y1="42.9" x2="22.61" y2="7.86" gradientTransform="matrix(1, 0, 0, -1, 0, 48)" gradientUnits="userSpaceOnUse"><stop offset="0" stop-color="#e8e8e8"/><stop offset="1" stop-color="#cbcbcb"/></linearGradient><linearGradient id="linear-gradient-25" x1="22.62" y1="42.8" x2="22.62" y2="7.94" gradientTransform="matrix(1, 0, 0, -1, 0, 48)" gradientUnits="userSpaceOnUse"><stop offset="0" stop-color="#e7e7e7"/><stop offset="1" stop-color="#d4d4d4"/></linearGradient><linearGradient id="linear-gradient-26" x1="22.62" y1="42.71" x2="22.62" y2="8.03" gradientTransform="matrix(1, 0, 0, -1, 0, 48)" gradientUnits="userSpaceOnUse"><stop offset="0" stop-color="#e6e6e6"/><stop offset="1" stop-color="#ddd"/></linearGradient></defs><title>cap_Purple</title><g id="Layer_2" data-name="Layer 2"><g id="Layer_1-2" data-name="Layer 1"><g id="Cap"><g id="Layer_2-2" data-name="Layer 2"><g id="Layer_1-2-2" data-name="Layer 1-2"><path class="cls-1" d="M44.25,21.34a3.28,3.28,0,0,1-1-2,3.64,3.64,0,0,1,.3-2.23l.72-.95-.18-.56L44,15.27h0l-.07-.2-1.16-.35a3.31,3.31,0,0,1-1.51-1.58,3.77,3.77,0,0,1-.41-2.21l.41-1.12-.36-.49-.35-.47H39.32a3.4,3.4,0,0,1-1.91-1,3.59,3.59,0,0,1-1.06-2h0V4.64l-.48-.36L35.44,4l-1.12.4A3.23,3.23,0,0,1,32.13,4a3.66,3.66,0,0,1-1.61-1.55h0l-.35-1.14L30,1.23h0L29.25,1h0L29,.93l-.95.72a3.29,3.29,0,0,1-2.18.3,3.54,3.54,0,0,1-2-1L23.2,0H22l-.69,1a3.23,3.23,0,0,1-2,.94,3.68,3.68,0,0,1-2.24-.3L16.19.93,16,1h0l-.72.24h0l-.19.06-.34,1.14h0A3.22,3.22,0,0,1,13.1,4a3.33,3.33,0,0,1-2.16.39L9.79,4l-.47.35L9,4.54H9l-.18.13V5.83h0a3.09,3.09,0,0,1-1,2,3.59,3.59,0,0,1-1.9,1.05H4.67l-.35.47L4,9.81l.39,1.13a3.14,3.14,0,0,1-.4,2.2,3.38,3.38,0,0,1-1.5,1.58l-1.18.35-.07.2h0l-.1.36-.2.56.72.95A3.14,3.14,0,0,1,2,19.37a3.3,3.3,0,0,1-.93,2L0,22v1.19l1,.68a3.18,3.18,0,0,1,1,2A3.42,3.42,0,0,1,1.74,28L1,29l.2.56.1.36h0l.07.2,1.13.34h0A3.16,3.16,0,0,1,4,32.15a3.32,3.32,0,0,1,.39,2.16L4,35.44l.34.48.35.48H5.87a3.14,3.14,0,0,1,2,1.06,3.48,3.48,0,0,1,1.06,1.9V40.6h0l.07.1H9l.56.4.23.17,1.13-.38a3.16,3.16,0,0,1,2.21.4,3.33,3.33,0,0,1,1.58,1.5L15.07,44l.24.08.67.22h0l.21.07.95-.71a3.17,3.17,0,0,1,2.22-.3,3.37,3.37,0,0,1,2,.94l.69,1H23.2l.69-1a3.18,3.18,0,0,1,2-1,3.33,3.33,0,0,1,2.15.28l1,.74.21-.06h0l.65-.21.27-.09.35-1.16a3.31,3.31,0,0,1,1.58-1.51,3.6,3.6,0,0,1,2.23-.4l1.11.38.47-.34.48-.35V39.35a3.42,3.42,0,0,1,1-1.91,3.63,3.63,0,0,1,2-1.06h1.17l.35-.48.36-.48-.41-1.13a3.39,3.39,0,0,1,.39-2.16,3.78,3.78,0,0,1,1.56-1.63h0L44,30.18V30h0l.12-.36.18-.56-.72-1a3.17,3.17,0,0,1-.3-2.18,3.74,3.74,0,0,1,1-2l1-.67V22Z"/><g class="cls-2"><path class="cls-3" d="M14.73,2.43A3.28,3.28,0,0,1,13.1,4a3.31,3.31,0,0,1-2.22.4l-.68.35,2,4,5.23-2.67-2-4Z"/><path class="cls-4" d="M34.33,40.89a3.6,3.6,0,0,0-2.23.4,3.39,3.39,0,0,0-1.62,1.55l-.68.35-2-4L33,36.53l2,4Z"/><path class="cls-5" d="M8.86,5.85a3.09,3.09,0,0,1-1,2,3.46,3.46,0,0,1-2,1.07l-.54.54L8.5,12.63l4.15-4.15L9.42,5.29Z"/><path class="cls-6" d="M39.4,36.38a3.63,3.63,0,0,0-2,1.06,3.32,3.32,0,0,0-1.07,2L35.8,40,32.62,36.8l4.15-4.15L40,35.81Z"/><path class="cls-7" d="M4.36,10.92A3.24,3.24,0,0,1,4,13.14a3.4,3.4,0,0,1-1.57,1.63l-.33.67,4,2,2.67-5.23-4-2Z"/><path class="cls-8" d="M42.82,30.52a3.78,3.78,0,0,0-1.56,1.63,3.14,3.14,0,0,0-.39,2.22l-.35.67-4-2,2.67-5.23,4,2Z"/><path class="cls-9" d="M1.64,17.14a3.25,3.25,0,0,1,.3,2.23,3.39,3.39,0,0,1-1,2l-.1.75,4.43.7L6.18,17l-4.43-.7Z"/><path class="cls-10" d="M44.26,23.89a3.74,3.74,0,0,0-1,2,3.25,3.25,0,0,0,.3,2.23l-.13.76L39,28.2l1-5.8,4.44.7Z"/><path class="cls-10" d="M1,23.89a3.13,3.13,0,0,1,1,2,3.44,3.44,0,0,1-.3,2.23l.12.76,4.43-.71-.91-5.8-4.43.7Z"/><path class="cls-9" d="M43.6,17.14a3.64,3.64,0,0,0-.3,2.23,3.28,3.28,0,0,0,1,2l.12.75-4.44.7-1-5.77,4.43-.7Z"/><path class="cls-8" d="M2.41,30.52A3.2,3.2,0,0,1,4,32.15a3.58,3.58,0,0,1,.4,2.22l.33.67,4-2L6.05,27.77l-4,2Z"/><path class="cls-7" d="M40.87,10.92a3.73,3.73,0,0,0,.41,2.22,3.26,3.26,0,0,0,1.56,1.63l.35.67-4,2L36.52,12.2l4-2Z"/><path class="cls-6" d="M5.84,36.38a3.14,3.14,0,0,1,2,1.06,3.42,3.42,0,0,1,1.08,2l.52.53,3.19-3.17L8.46,32.64,5.28,35.81Z"/><path class="cls-5" d="M36.37,5.85a3.59,3.59,0,0,0,1.06,2,3.37,3.37,0,0,0,2,1.07l.55.54L36.8,12.63,32.63,8.46l3.18-3.17Z"/><path class="cls-4" d="M10.92,40.89a3.11,3.11,0,0,1,2.21.4,3.39,3.39,0,0,1,1.62,1.55l.69.35,2-4-5.23-2.66-2,4Z"/><path class="cls-3" d="M30.52,2.43A3.65,3.65,0,0,0,32.13,4a3.26,3.26,0,0,0,2.22.4l.69.35-2,4L27.76,6.06l2-4Z"/><path d="M17.12,43.61a3.23,3.23,0,0,1,2.24-.3,3.34,3.34,0,0,1,2,1l.74.11L22.84,40l-5.84-1-.7,4.44Z"/><path class="cls-11" d="M23.87,1a3.74,3.74,0,0,0,2,1,3.2,3.2,0,0,0,2.23-.31l.76.13L28.2,6.2l-5.8-.92L23.1.84Z"/><path d="M23.87,44.28a3.18,3.18,0,0,1,2-1,3.37,3.37,0,0,1,2.23.3l.76-.11L28.16,39,22.4,40l.7,4.43Z"/><path class="cls-11" d="M17.12,1.64a3.68,3.68,0,0,0,2.24.3,3.28,3.28,0,0,0,2-1L22.1.81l.71,4.44L17,6.2l-.7-4.43Z"/><polygon class="cls-11" points="23.2 0 22.63 0 22.63 4.43 24.66 4.43 23.2 0"/><polygon class="cls-11" points="22.63 4.34 24.75 4.34 23.2 0 22.63 0 22.63 4.34"/><polygon class="cls-11" points="22.63 4.24 24.83 4.24 23.2 0 22.63 0 22.63 4.24"/><polygon class="cls-11" points="22.63 4.15 24.91 4.15 23.2 0 22.63 0 22.63 4.15"/><polygon class="cls-11" points="22.63 4.06 24.99 4.06 23.2 0 22.63 0 22.63 4.06"/><polygon class="cls-11" points="22.63 3.97 25.07 3.97 23.2 0 22.63 0 22.63 3.97"/><polygon class="cls-11" points="22.63 3.87 25.15 3.87 23.2 0 22.63 0 22.63 3.87"/><polygon class="cls-11" points="22.63 3.78 25.23 3.78 23.2 0 22.63 0 22.63 3.78"/><polygon class="cls-11" points="22.63 3.69 25.32 3.69 23.2 0 22.63 0 22.63 3.69"/><polygon class="cls-11" points="22.63 3.6 25.4 3.6 23.2 0 22.63 0 22.63 3.6"/><polygon class="cls-11" points="22.63 3.5 25.48 3.5 23.2 0 22.63 0 22.63 3.5"/><polygon class="cls-11" points="22.63 3.41 25.56 3.41 23.2 0 22.63 0 22.63 3.41"/><polygon class="cls-11" points="22.03 0 20.57 4.43 22.63 4.43 22.63 0 22.03 0"/><polygon class="cls-11" points="22.03 0 20.49 4.34 22.63 4.34 22.63 0 22.03 0"/><polygon class="cls-11" points="22.03 0 20.41 4.24 22.63 4.24 22.63 0 22.03 0"/><polygon class="cls-11" points="22.03 0 20.32 4.15 22.63 4.15 22.63 0 22.03 0"/><polygon class="cls-11" points="22.03 0 20.24 4.06 22.63 4.06 22.63 0 22.03 0"/><polygon class="cls-11" points="22.03 0 20.16 3.97 22.63 3.97 22.63 0 22.03 0"/><polygon class="cls-11" points="22.03 0 20.08 3.87 22.63 3.87 22.63 0 22.03 0"/><polygon class="cls-11" points="22.03 0 20 3.78 22.63 3.78 22.63 0 22.03 0"/><polygon class="cls-11" points="22.03 0 19.92 3.69 22.63 3.69 22.63 0 22.03 0"/><polygon class="cls-11" points="22.03 0 19.84 3.6 22.63 3.6 22.63 0 22.03 0"/><polygon class="cls-11" points="22.03 0 19.75 3.5 22.63 3.5 22.63 0 22.03 0"/><polygon class="cls-11" points="22.63 0 22.03 0 19.67 3.41 22.63 3.41 22.63 0"/><polygon points="22.63 45.25 23.2 45.25 25.56 41.84 22.63 41.84 22.63 45.25"/><polygon points="25.48 41.75 22.63 41.75 22.63 45.25 23.2 45.25 25.48 41.75"/><polygon points="25.4 41.66 22.63 41.66 22.63 45.25 23.2 45.25 25.4 41.66"/><polygon points="25.32 41.56 22.63 41.56 22.63 45.25 23.2 45.25 25.32 41.56"/><polygon points="25.23 41.47 22.63 41.47 22.63 45.25 23.2 45.25 25.23 41.47"/><polygon points="25.15 41.38 22.63 41.38 22.63 45.25 23.2 45.25 25.15 41.38"/><polygon points="25.07 41.29 22.63 41.29 22.63 45.25 23.2 45.25 25.07 41.29"/><polygon points="24.99 41.19 22.63 41.19 22.63 45.25 23.2 45.25 24.99 41.19"/><polygon points="24.91 41.1 22.63 41.1 22.63 45.25 23.2 45.25 24.91 41.1"/><polygon points="24.83 41.01 22.63 41.01 22.63 45.25 23.2 45.25 24.83 41.01"/><polygon points="24.75 40.92 22.63 40.92 22.63 45.25 23.2 45.25 24.75 40.92"/><polygon points="24.66 40.82 22.63 40.82 22.63 45.25 23.2 45.25 24.66 40.82"/><polygon points="22.63 41.84 19.67 41.84 22.03 45.25 22.63 45.25 22.63 41.84"/><polygon points="19.75 41.75 22.03 45.25 22.63 45.25 22.63 41.75 19.75 41.75"/><polygon points="19.84 41.66 22.03 45.25 22.63 45.25 22.63 41.66 19.84 41.66"/><polygon points="19.92 41.56 22.03 45.25 22.63 45.25 22.63 41.56 19.92 41.56"/><polygon points="20 41.47 22.03 45.25 22.63 45.25 22.63 41.47 20 41.47"/><polygon points="20.08 41.38 22.03 45.25 22.63 45.25 22.63 41.38 20.08 41.38"/><polygon points="20.16 41.29 22.03 45.25 22.63 45.25 22.63 41.29 20.16 41.29"/><polygon points="20.24 41.19 22.03 45.25 22.63 45.25 22.63 41.19 20.24 41.19"/><polygon points="20.32 41.1 22.03 45.25 22.63 45.25 22.63 41.1 20.32 41.1"/><polygon points="20.41 41.01 22.03 45.25 22.63 45.25 22.63 41.01 20.41 41.01"/><polygon points="20.49 40.92 22.03 45.25 22.63 45.25 22.63 40.92 20.49 40.92"/><polygon points="20.57 40.82 22.03 45.25 22.63 45.25 22.63 40.82 20.57 40.82"/><polygon class="cls-3" points="15.63 1.11 15.07 1.29 13.87 5.26 16.68 4.35 15.63 1.11"/><polygon class="cls-3" points="15.07 1.29 13.98 5.33 16.71 4.44 15.63 1.11 15.07 1.29"/><polygon class="cls-3" points="15.07 1.29 14.09 5.39 16.74 4.53 15.63 1.11 15.07 1.29"/><polygon class="cls-3" points="15.07 1.29 14.19 5.45 16.77 4.61 15.63 1.11 15.07 1.29"/><polygon class="cls-3" points="15.07 1.29 14.3 5.51 16.8 4.7 15.63 1.11 15.07 1.29"/><polygon class="cls-3" points="15.07 1.29 14.41 5.58 16.83 4.79 15.63 1.11 15.07 1.29"/><polygon class="cls-3" points="15.07 1.29 14.51 5.64 16.86 4.88 15.63 1.11 15.07 1.29"/><polygon class="cls-3" points="15.07 1.29 14.62 5.7 16.89 4.97 15.63 1.11 15.07 1.29"/><polygon class="cls-3" points="15.07 1.29 14.73 5.76 16.91 5.05 15.63 1.11 15.07 1.29"/><polygon class="cls-3" points="15.07 1.29 14.83 5.83 16.94 5.14 15.63 1.11 15.07 1.29"/><polygon class="cls-3" points="15.07 1.29 14.94 5.89 16.97 5.23 15.63 1.11 15.07 1.29"/><polygon class="cls-3" points="15.07 1.29 15.05 5.95 17 5.32 15.63 1.11 15.07 1.29"/><polygon class="cls-11" points="16.68 4.35 19.48 3.44 16.19 0.93 15.63 1.11 16.68 4.35"/><polygon class="cls-12" points="16.19 0.93 15.63 1.11 16.71 4.44 19.43 3.55 16.19 0.93"/><polygon class="cls-13" points="16.19 0.93 15.63 1.11 16.74 4.53 19.38 3.66 16.19 0.93"/><polygon class="cls-14" points="16.19 0.93 15.63 1.11 16.77 4.61 19.33 3.78 16.19 0.93"/><polygon class="cls-15" points="16.19 0.93 15.63 1.11 16.8 4.7 19.28 3.89 16.19 0.93"/><polygon class="cls-16" points="16.19 0.93 15.63 1.11 16.83 4.79 19.23 4 16.19 0.93"/><polygon class="cls-17" points="16.19 0.93 15.63 1.11 16.86 4.88 19.18 4.12 16.19 0.93"/><polygon class="cls-18" points="16.19 0.93 15.63 1.11 16.89 4.97 19.13 4.23 16.19 0.93"/><polygon class="cls-19" points="16.19 0.93 15.63 1.11 16.91 5.05 19.08 4.34 16.19 0.93"/><polygon class="cls-20" points="16.19 0.93 15.63 1.11 16.94 5.14 19.03 4.46 16.19 0.93"/><polygon class="cls-21" points="16.19 0.93 15.63 1.11 16.97 5.23 18.98 4.57 16.19 0.93"/><polygon class="cls-3" points="16.19 0.93 15.63 1.11 17 5.32 18.93 4.68 16.19 0.93"/><polygon points="28.55 40.9 25.75 41.82 29.04 44.32 29.6 44.14 28.55 40.9"/><polygon class="cls-22" points="25.8 41.7 29.04 44.32 29.6 44.14 28.52 40.82 25.8 41.7"/><polygon class="cls-23" points="25.85 41.59 29.04 44.32 29.6 44.14 28.49 40.73 25.85 41.59"/><polygon class="cls-24" points="25.9 41.48 29.04 44.32 29.6 44.14 28.47 40.64 25.9 41.48"/><polygon class="cls-25" points="25.95 41.37 29.04 44.32 29.6 44.14 28.44 40.55 25.95 41.37"/><polygon class="cls-26" points="26 41.25 29.04 44.32 29.6 44.14 28.41 40.47 26 41.25"/><polygon class="cls-27" points="26.05 41.14 29.04 44.32 29.6 44.14 28.39 40.38 26.05 41.14"/><polygon class="cls-28" points="26.1 41.02 29.04 44.32 29.6 44.14 28.36 40.29 26.1 41.02"/><polygon class="cls-29" points="26.15 40.91 29.04 44.32 29.6 44.14 28.33 40.2 26.15 40.91"/><polygon class="cls-30" points="26.2 40.8 29.04 44.32 29.6 44.14 28.3 40.11 26.2 40.8"/><polygon class="cls-31" points="26.25 40.68 29.04 44.32 29.6 44.14 28.28 40.02 26.25 40.68"/><polygon class="cls-4" points="26.3 40.57 29.04 44.32 29.6 44.14 28.25 39.94 26.3 40.57"/><polygon class="cls-4" points="29.6 44.14 30.17 43.96 31.36 39.99 28.55 40.9 29.6 44.14"/><polygon class="cls-4" points="31.25 39.93 28.52 40.82 29.6 44.14 30.17 43.96 31.25 39.93"/><polygon class="cls-4" points="31.15 39.87 28.49 40.73 29.6 44.14 30.17 43.96 31.15 39.87"/><polygon class="cls-4" points="31.04 39.8 28.47 40.64 29.6 44.14 30.17 43.96 31.04 39.8"/><polygon class="cls-4" points="30.93 39.74 28.44 40.55 29.6 44.14 30.17 43.96 30.93 39.74"/><polygon class="cls-4" points="30.83 39.68 28.41 40.47 29.6 44.14 30.17 43.96 30.83 39.68"/><polygon class="cls-4" points="30.72 39.62 28.39 40.38 29.6 44.14 30.17 43.96 30.72 39.62"/><polygon class="cls-4" points="30.61 39.55 28.36 40.29 29.6 44.14 30.17 43.96 30.61 39.55"/><polygon class="cls-4" points="30.5 39.49 28.33 40.2 29.6 44.14 30.17 43.96 30.5 39.49"/><polygon class="cls-4" points="30.4 39.43 28.3 40.11 29.6 44.14 30.17 43.96 30.4 39.43"/><polygon class="cls-4" points="30.29 39.37 28.28 40.02 29.6 44.14 30.17 43.96 30.29 39.37"/><polygon class="cls-4" points="30.18 39.3 28.25 39.94 29.6 44.14 30.17 43.96 30.18 39.3"/><polygon class="cls-3" points="11.32 7.08 13.71 5.34 9.79 3.97 9.32 4.32 11.32 7.08"/><polygon class="cls-32" points="9.79 3.97 9.32 4.32 11.38 7.15 13.7 5.47 9.79 3.97"/><polygon class="cls-33" points="9.79 3.97 9.32 4.32 11.43 7.23 13.69 5.59 9.79 3.97"/><polygon class="cls-34" points="9.79 3.97 9.32 4.32 11.48 7.3 13.67 5.71 9.79 3.97"/><polygon class="cls-35" points="9.79 3.97 9.32 4.32 11.54 7.38 13.66 5.84 9.79 3.97"/><polygon class="cls-36" points="9.79 3.97 9.32 4.32 11.59 7.45 13.65 5.96 9.79 3.97"/><polygon class="cls-37" points="9.79 3.97 9.32 4.32 11.65 7.53 13.64 6.08 9.79 3.97"/><polygon class="cls-38" points="9.79 3.97 9.32 4.32 11.7 7.6 13.62 6.21 9.79 3.97"/><polygon class="cls-39" points="9.79 3.97 9.32 4.32 11.76 7.68 13.61 6.33 9.79 3.97"/><polygon class="cls-40" points="9.79 3.97 9.32 4.32 11.81 7.75 13.6 6.45 9.79 3.97"/><polygon class="cls-41" points="9.79 3.97 9.32 4.32 11.87 7.83 13.59 6.57 9.79 3.97"/><polygon class="cls-5" points="9.79 3.97 9.32 4.32 11.92 7.9 13.57 6.7 9.79 3.97"/><polygon class="cls-5" points="9.32 4.32 8.84 4.68 8.93 8.82 11.32 7.08 9.32 4.32"/><polygon class="cls-5" points="8.84 4.68 9.05 8.84 11.38 7.15 9.32 4.32 8.84 4.68"/><polygon class="cls-5" points="8.84 4.68 9.17 8.87 11.43 7.23 9.32 4.32 8.84 4.68"/><polygon class="cls-5" points="8.84 4.68 9.3 8.89 11.48 7.3 9.32 4.32 8.84 4.68"/><polygon class="cls-5" points="8.84 4.68 9.42 8.92 11.54 7.38 9.32 4.32 8.84 4.68"/><polygon class="cls-5" points="8.84 4.68 9.54 8.95 11.59 7.45 9.32 4.32 8.84 4.68"/><polygon class="cls-5" points="8.84 4.68 9.66 8.97 11.65 7.53 9.32 4.32 8.84 4.68"/><polygon class="cls-5" points="8.84 4.68 9.78 9 11.7 7.6 9.32 4.32 8.84 4.68"/><polygon class="cls-5" points="8.84 4.68 9.9 9.03 11.76 7.68 9.32 4.32 8.84 4.68"/><polygon class="cls-5" points="8.84 4.68 10.02 9.05 11.81 7.75 9.32 4.32 8.84 4.68"/><polygon class="cls-5" points="8.84 4.68 10.15 9.08 11.87 7.83 9.32 4.32 8.84 4.68"/><polygon class="cls-5" points="8.84 4.68 10.27 9.11 11.92 7.9 9.32 4.32 8.84 4.68"/><polygon class="cls-6" points="35.91 40.93 36.39 40.58 36.3 36.44 33.91 38.17 35.91 40.93"/><polygon class="cls-6" points="36.18 36.41 33.86 38.09 35.91 40.93 36.39 40.58 36.18 36.41"/><polygon class="cls-6" points="36.06 36.39 33.8 38.02 35.91 40.93 36.39 40.58 36.06 36.39"/><polygon class="cls-6" points="35.94 36.36 33.75 37.95 35.91 40.93 36.39 40.58 35.94 36.36"/><polygon class="cls-6" points="35.82 36.33 33.69 37.87 35.91 40.93 36.39 40.58 35.82 36.33"/><polygon class="cls-6" points="35.69 36.31 33.64 37.8 35.91 40.93 36.39 40.58 35.69 36.31"/><polygon class="cls-6" points="35.57 36.28 33.59 37.72 35.91 40.93 36.39 40.58 35.57 36.28"/><polygon class="cls-6" points="35.45 36.25 33.53 37.65 35.91 40.93 36.39 40.58 35.45 36.25"/><polygon class="cls-6" points="35.33 36.23 33.48 37.58 35.91 40.93 36.39 40.58 35.33 36.23"/><polygon class="cls-6" points="35.21 36.2 33.42 37.5 35.91 40.93 36.39 40.58 35.21 36.2"/><polygon class="cls-6" points="35.09 36.17 33.37 37.43 35.91 40.93 36.39 40.58 35.09 36.17"/><polygon class="cls-6" points="34.97 36.15 33.31 37.35 35.91 40.93 36.39 40.58 34.97 36.15"/><polygon class="cls-4" points="33.91 38.17 31.52 39.91 35.44 41.27 35.91 40.93 33.91 38.17"/><polygon class="cls-42" points="31.53 39.79 35.44 41.27 35.91 40.93 33.86 38.09 31.53 39.79"/><polygon class="cls-43" points="31.55 39.66 35.44 41.27 35.91 40.93 33.8 38.02 31.55 39.66"/><polygon class="cls-44" points="31.56 39.54 35.44 41.27 35.91 40.93 33.75 37.95 31.56 39.54"/><polygon class="cls-45" points="31.57 39.41 35.44 41.27 35.91 40.93 33.69 37.87 31.57 39.41"/><polygon class="cls-46" points="31.58 39.29 35.44 41.27 35.91 40.93 33.64 37.8 31.58 39.29"/><polygon class="cls-47" points="31.6 39.17 35.44 41.27 35.91 40.93 33.59 37.72 31.6 39.17"/><polygon class="cls-48" points="31.61 39.04 35.44 41.27 35.91 40.93 33.53 37.65 31.61 39.04"/><polygon class="cls-49" points="31.62 38.92 35.44 41.27 35.91 40.93 33.48 37.58 31.62 38.92"/><polygon class="cls-50" points="31.63 38.8 35.44 41.27 35.91 40.93 33.42 37.5 31.63 38.8"/><polygon class="cls-51" points="31.65 38.67 35.44 41.27 35.91 40.93 33.37 37.43 31.65 38.67"/><polygon class="cls-6" points="31.66 38.55 35.44 41.27 35.91 40.93 33.31 37.35 31.66 38.55"/><polygon class="cls-5" points="7.07 11.33 8.81 8.95 4.66 8.85 4.31 9.32 7.07 11.33"/><polygon class="cls-52" points="4.66 8.85 4.31 9.32 7.14 11.38 8.83 9.07 4.66 8.85"/><polygon class="cls-53" points="4.66 8.85 4.31 9.32 7.22 11.44 8.86 9.19 4.66 8.85"/><polygon class="cls-54" points="4.66 8.85 4.31 9.32 7.29 11.49 8.88 9.31 4.66 8.85"/><polygon class="cls-55" points="4.66 8.85 4.31 9.32 7.37 11.55 8.91 9.43 4.66 8.85"/><polygon class="cls-56" points="4.66 8.85 4.31 9.32 7.44 11.6 8.94 9.55 4.66 8.85"/><polygon class="cls-57" points="4.66 8.85 4.31 9.32 7.52 11.65 8.96 9.67 4.66 8.85"/><polygon class="cls-58" points="4.66 8.85 4.31 9.32 7.59 11.71 8.99 9.79 4.66 8.85"/><polygon class="cls-59" points="4.66 8.85 4.31 9.32 7.67 11.76 9.01 9.91 4.66 8.85"/><polygon class="cls-60" points="4.66 8.85 4.31 9.32 7.74 11.82 9.04 10.03 4.66 8.85"/><polygon class="cls-61" points="4.66 8.85 4.31 9.32 7.82 11.87 9.06 10.15 4.66 8.85"/><polygon class="cls-62" points="4.66 8.85 4.31 9.32 7.89 11.93 9.09 10.27 4.66 8.85"/><polygon class="cls-7" points="4.31 9.32 3.98 9.81 5.33 13.72 7.07 11.33 4.31 9.32"/><polygon class="cls-63" points="3.98 9.81 5.45 13.71 7.14 11.38 4.31 9.32 3.98 9.81"/><polygon class="cls-64" points="3.98 9.81 5.58 13.69 7.22 11.44 4.31 9.32 3.98 9.81"/><polygon class="cls-65" points="3.98 9.81 5.7 13.68 7.29 11.49 4.31 9.32 3.98 9.81"/><polygon class="cls-66" points="3.98 9.81 5.83 13.67 7.37 11.55 4.31 9.32 3.98 9.81"/><polygon class="cls-67" points="3.98 9.81 5.95 13.66 7.44 11.6 4.31 9.32 3.98 9.81"/><polygon class="cls-68" points="3.98 9.81 6.08 13.64 7.52 11.65 4.31 9.32 3.98 9.81"/><polygon class="cls-69" points="3.98 9.81 6.2 13.63 7.59 11.71 4.31 9.32 3.98 9.81"/><polygon class="cls-70" points="3.98 9.81 6.33 13.62 7.67 11.76 4.31 9.32 3.98 9.81"/><polygon class="cls-71" points="3.98 9.81 6.45 13.61 7.74 11.82 4.31 9.32 3.98 9.81"/><polygon class="cls-72" points="3.98 9.81 6.58 13.59 7.82 11.87 4.31 9.32 3.98 9.81"/><polygon class="cls-62" points="3.98 9.81 6.7 13.58 7.89 11.93 4.31 9.32 3.98 9.81"/><polygon class="cls-8" points="40.92 35.92 41.28 35.45 39.91 31.54 38.16 33.91 40.92 35.92"/><polygon class="cls-8" points="39.78 31.55 38.09 33.86 40.92 35.92 41.28 35.45 39.78 31.55"/><polygon class="cls-8" points="39.66 31.56 38.01 33.81 40.92 35.92 41.28 35.45 39.66 31.56"/><polygon class="cls-8" points="39.54 31.57 37.94 33.76 40.92 35.92 41.28 35.45 39.54 31.57"/><polygon class="cls-8" points="39.41 31.58 37.86 33.7 40.92 35.92 41.28 35.45 39.41 31.58"/><polygon class="cls-8" points="39.29 31.59 37.79 33.65 40.92 35.92 41.28 35.45 39.29 31.59"/><polygon class="cls-8" points="39.17 31.61 37.71 33.59 40.92 35.92 41.28 35.45 39.17 31.61"/><polygon class="cls-8" points="39.04 31.62 37.64 33.54 40.92 35.92 41.28 35.45 39.04 31.62"/><polygon class="cls-8" points="38.92 31.63 37.56 33.49 40.92 35.92 41.28 35.45 38.92 31.63"/><polygon class="cls-8" points="38.8 31.64 37.49 33.44 40.92 35.92 41.28 35.45 38.8 31.64"/><polygon class="cls-8" points="38.67 31.65 37.41 33.38 40.92 35.92 41.28 35.45 38.67 31.65"/><polygon class="cls-8" points="38.55 31.66 37.34 33.33 40.92 35.92 41.28 35.45 38.55 31.66"/><polygon class="cls-6" points="38.16 33.91 36.42 36.31 40.57 36.4 40.92 35.92 38.16 33.91"/><polygon class="cls-73" points="36.4 36.19 40.57 36.4 40.92 35.92 38.09 33.86 36.4 36.19"/><polygon class="cls-74" points="36.37 36.06 40.57 36.4 40.92 35.92 38.01 33.81 36.37 36.06"/><polygon class="cls-75" points="36.35 35.94 40.57 36.4 40.92 35.92 37.94 33.76 36.35 35.94"/><polygon class="cls-76" points="36.32 35.82 40.57 36.4 40.92 35.92 37.86 33.7 36.32 35.82"/><polygon class="cls-77" points="36.3 35.7 40.57 36.4 40.92 35.92 37.79 33.65 36.3 35.7"/><polygon class="cls-78" points="36.27 35.58 40.57 36.4 40.92 35.92 37.71 33.59 36.27 35.58"/><polygon class="cls-79" points="36.25 35.46 40.57 36.4 40.92 35.92 37.64 33.54 36.25 35.46"/><polygon class="cls-80" points="36.22 35.34 40.57 36.4 40.92 35.92 37.56 33.49 36.22 35.34"/><polygon class="cls-81" points="36.19 35.22 40.57 36.4 40.92 35.92 37.49 33.44 36.19 35.22"/><polygon class="cls-82" points="36.17 35.1 40.57 36.4 40.92 35.92 37.41 33.38 36.17 35.1"/><polygon class="cls-8" points="36.14 34.98 40.57 36.4 40.92 35.92 37.34 33.33 36.14 34.98"/><polygon class="cls-6" points="11.32 38.17 8.93 36.44 8.84 40.58 9.32 40.93 11.32 38.17"/><polygon class="cls-6" points="8.84 40.58 9.32 40.93 11.38 38.09 9.05 36.41 8.84 40.58"/><polygon class="cls-6" points="8.84 40.58 9.32 40.93 11.43 38.02 9.17 36.39 8.84 40.58"/><polygon class="cls-6" points="8.84 40.58 9.32 40.93 11.48 37.95 9.3 36.36 8.84 40.58"/><polygon class="cls-6" points="8.84 40.58 9.32 40.93 11.54 37.87 9.42 36.33 8.84 40.58"/><polygon class="cls-6" points="8.84 40.58 9.32 40.93 11.59 37.8 9.54 36.31 8.84 40.58"/><polygon class="cls-6" points="8.84 40.58 9.32 40.93 11.65 37.72 9.66 36.28 8.84 40.58"/><polygon class="cls-6" points="8.84 40.58 9.32 40.93 11.7 37.65 9.78 36.25 8.84 40.58"/><polygon class="cls-6" points="8.84 40.58 9.32 40.93 11.76 37.58 9.9 36.23 8.84 40.58"/><polygon class="cls-6" points="8.84 40.58 9.32 40.93 11.81 37.5 10.02 36.2 8.84 40.58"/><polygon class="cls-6" points="8.84 40.58 9.32 40.93 11.87 37.43 10.15 36.17 8.84 40.58"/><polygon class="cls-6" points="8.84 40.58 9.32 40.93 11.92 37.35 10.27 36.15 8.84 40.58"/><polygon class="cls-4" points="9.32 40.93 9.79 41.27 13.71 39.91 11.32 38.17 9.32 40.93"/><polygon class="cls-42" points="9.79 41.27 13.7 39.79 11.38 38.09 9.32 40.93 9.79 41.27"/><polygon class="cls-43" points="9.79 41.27 13.69 39.66 11.43 38.02 9.32 40.93 9.79 41.27"/><polygon class="cls-44" points="9.79 41.27 13.67 39.54 11.48 37.95 9.32 40.93 9.79 41.27"/><polygon class="cls-45" points="9.79 41.27 13.66 39.41 11.54 37.87 9.32 40.93 9.79 41.27"/><polygon class="cls-46" points="9.79 41.27 13.65 39.29 11.59 37.8 9.32 40.93 9.79 41.27"/><polygon class="cls-47" points="9.79 41.27 13.64 39.17 11.65 37.72 9.32 40.93 9.79 41.27"/><polygon class="cls-48" points="9.79 41.27 13.62 39.04 11.7 37.65 9.32 40.93 9.79 41.27"/><polygon class="cls-49" points="9.79 41.27 13.61 38.92 11.76 37.58 9.32 40.93 9.79 41.27"/><polygon class="cls-50" points="9.79 41.27 13.6 38.8 11.81 37.5 9.32 40.93 9.79 41.27"/><polygon class="cls-51" points="9.79 41.27 13.59 38.67 11.87 37.43 9.32 40.93 9.79 41.27"/><polygon class="cls-6" points="9.79 41.27 13.57 38.55 11.92 37.35 9.32 40.93 9.79 41.27"/><polygon class="cls-3" points="35.91 4.32 35.44 3.97 31.52 5.34 33.91 7.08 35.91 4.32"/><polygon class="cls-32" points="31.53 5.47 33.86 7.15 35.91 4.32 35.44 3.97 31.53 5.47"/><polygon class="cls-33" points="31.55 5.59 33.8 7.23 35.91 4.32 35.44 3.97 31.55 5.59"/><polygon class="cls-34" points="31.56 5.71 33.75 7.3 35.91 4.32 35.44 3.97 31.56 5.71"/><polygon class="cls-35" points="31.57 5.84 33.69 7.38 35.91 4.32 35.44 3.97 31.57 5.84"/><polygon class="cls-36" points="31.58 5.96 33.64 7.45 35.91 4.32 35.44 3.97 31.58 5.96"/><polygon class="cls-37" points="31.6 6.08 33.59 7.53 35.91 4.32 35.44 3.97 31.6 6.08"/><polygon class="cls-38" points="31.61 6.21 33.53 7.6 35.91 4.32 35.44 3.97 31.61 6.21"/><polygon class="cls-39" points="31.62 6.33 33.48 7.68 35.91 4.32 35.44 3.97 31.62 6.33"/><polygon class="cls-40" points="31.63 6.45 33.42 7.75 35.91 4.32 35.44 3.97 31.63 6.45"/><polygon class="cls-41" points="31.65 6.57 33.37 7.83 35.91 4.32 35.44 3.97 31.65 6.57"/><polygon class="cls-5" points="31.66 6.7 33.31 7.9 35.91 4.32 35.44 3.97 31.66 6.7"/><polygon class="cls-5" points="33.91 7.08 36.3 8.82 36.39 4.68 35.91 4.32 33.91 7.08"/><polygon class="cls-5" points="36.18 8.84 36.39 4.68 35.91 4.32 33.86 7.15 36.18 8.84"/><polygon class="cls-5" points="36.06 8.87 36.39 4.68 35.91 4.32 33.8 7.23 36.06 8.87"/><polygon class="cls-5" points="35.94 8.89 36.39 4.68 35.91 4.32 33.75 7.3 35.94 8.89"/><polygon class="cls-5" points="35.82 8.92 36.39 4.68 35.91 4.32 33.69 7.38 35.82 8.92"/><polygon class="cls-5" points="35.69 8.95 36.39 4.68 35.91 4.32 33.64 7.45 35.69 8.95"/><polygon class="cls-5" points="35.57 8.97 36.39 4.68 35.91 4.32 33.59 7.53 35.57 8.97"/><polygon class="cls-5" points="35.45 9 36.39 4.68 35.91 4.32 33.53 7.6 35.45 9"/><polygon class="cls-5" points="35.33 9.03 36.39 4.68 35.91 4.32 33.48 7.68 35.33 9.03"/><polygon class="cls-5" points="35.21 9.05 36.39 4.68 35.91 4.32 33.42 7.75 35.21 9.05"/><polygon class="cls-5" points="35.09 9.08 36.39 4.68 35.91 4.32 33.37 7.83 35.09 9.08"/><polygon class="cls-5" points="34.97 9.11 36.39 4.68 35.91 4.32 33.31 7.9 34.97 9.11"/><polygon class="cls-4" points="16.68 40.9 13.87 39.99 15.07 43.96 15.63 44.14 16.68 40.9"/><polygon class="cls-4" points="15.07 43.96 15.63 44.14 16.71 40.82 13.98 39.93 15.07 43.96"/><polygon class="cls-4" points="15.07 43.96 15.63 44.14 16.74 40.73 14.09 39.87 15.07 43.96"/><polygon class="cls-4" points="15.07 43.96 15.63 44.14 16.77 40.64 14.19 39.8 15.07 43.96"/><polygon class="cls-4" points="15.07 43.96 15.63 44.14 16.8 40.55 14.3 39.74 15.07 43.96"/><polygon class="cls-4" points="15.07 43.96 15.63 44.14 16.83 40.47 14.41 39.68 15.07 43.96"/><polygon class="cls-4" points="15.07 43.96 15.63 44.14 16.86 40.38 14.51 39.62 15.07 43.96"/><polygon class="cls-4" points="15.07 43.96 15.63 44.14 16.89 40.29 14.62 39.55 15.07 43.96"/><polygon class="cls-4" points="15.07 43.96 15.63 44.14 16.91 40.2 14.73 39.49 15.07 43.96"/><polygon class="cls-4" points="15.07 43.96 15.63 44.14 16.94 40.11 14.83 39.43 15.07 43.96"/><polygon class="cls-4" points="15.07 43.96 15.63 44.14 16.97 40.02 14.94 39.37 15.07 43.96"/><polygon class="cls-4" points="15.07 43.96 15.63 44.14 17 39.94 15.05 39.3 15.07 43.96"/><polygon points="15.63 44.14 16.19 44.32 19.48 41.82 16.68 40.9 15.63 44.14"/><polygon class="cls-22" points="16.19 44.32 19.43 41.7 16.71 40.82 15.63 44.14 16.19 44.32"/><polygon class="cls-23" points="16.19 44.32 19.38 41.59 16.74 40.73 15.63 44.14 16.19 44.32"/><polygon class="cls-24" points="16.19 44.32 19.33 41.48 16.77 40.64 15.63 44.14 16.19 44.32"/><polygon class="cls-25" points="16.19 44.32 19.28 41.37 16.8 40.55 15.63 44.14 16.19 44.32"/><polygon class="cls-26" points="16.19 44.32 19.23 41.25 16.83 40.47 15.63 44.14 16.19 44.32"/><polygon class="cls-27" points="16.19 44.32 19.18 41.14 16.86 40.38 15.63 44.14 16.19 44.32"/><polygon class="cls-28" points="16.19 44.32 19.13 41.02 16.89 40.29 15.63 44.14 16.19 44.32"/><polygon class="cls-29" points="16.19 44.32 19.08 40.91 16.91 40.2 15.63 44.14 16.19 44.32"/><polygon class="cls-30" points="16.19 44.32 19.03 40.8 16.94 40.11 15.63 44.14 16.19 44.32"/><polygon class="cls-31" points="16.19 44.32 18.98 40.68 16.97 40.02 15.63 44.14 16.19 44.32"/><polygon class="cls-4" points="16.19 44.32 18.93 40.57 17 39.94 15.63 44.14 16.19 44.32"/><polygon class="cls-11" points="29.6 1.11 29.04 0.93 25.75 3.44 28.55 4.35 29.6 1.11"/><polygon class="cls-12" points="25.8 3.55 28.52 4.44 29.6 1.11 29.04 0.93 25.8 3.55"/><polygon class="cls-13" points="25.85 3.66 28.49 4.53 29.6 1.11 29.04 0.93 25.85 3.66"/><polygon class="cls-14" points="25.9 3.78 28.47 4.61 29.6 1.11 29.04 0.93 25.9 3.78"/><polygon class="cls-15" points="25.95 3.89 28.44 4.7 29.6 1.11 29.04 0.93 25.95 3.89"/><polygon class="cls-16" points="26 4 28.41 4.79 29.6 1.11 29.04 0.93 26 4"/><polygon class="cls-17" points="26.05 4.12 28.39 4.88 29.6 1.11 29.04 0.93 26.05 4.12"/><polygon class="cls-18" points="26.1 4.23 28.36 4.97 29.6 1.11 29.04 0.93 26.1 4.23"/><polygon class="cls-19" points="26.15 4.34 28.33 5.05 29.6 1.11 29.04 0.93 26.15 4.34"/><polygon class="cls-20" points="26.2 4.46 28.3 5.14 29.6 1.11 29.04 0.93 26.2 4.46"/><polygon class="cls-21" points="26.25 4.57 28.28 5.23 29.6 1.11 29.04 0.93 26.25 4.57"/><polygon class="cls-3" points="26.3 4.68 28.25 5.32 29.6 1.11 29.04 0.93 26.3 4.68"/><polygon class="cls-3" points="30.18 5.95 30.17 1.29 29.6 1.11 28.25 5.32 30.18 5.95"/><polygon class="cls-3" points="30.29 5.89 30.17 1.29 29.6 1.11 28.28 5.23 30.29 5.89"/><polygon class="cls-3" points="30.4 5.83 30.17 1.29 29.6 1.11 28.3 5.14 30.4 5.83"/><polygon class="cls-3" points="30.5 5.76 30.17 1.29 29.6 1.11 28.33 5.05 30.5 5.76"/><polygon class="cls-3" points="30.61 5.7 30.17 1.29 29.6 1.11 28.36 4.97 30.61 5.7"/><polygon class="cls-3" points="30.72 5.64 30.17 1.29 29.6 1.11 28.39 4.88 30.72 5.64"/><polygon class="cls-3" points="30.83 5.58 30.17 1.29 29.6 1.11 28.41 4.79 30.83 5.58"/><polygon class="cls-3" points="30.93 5.51 30.17 1.29 29.6 1.11 28.44 4.7 30.93 5.51"/><polygon class="cls-3" points="31.04 5.45 30.17 1.29 29.6 1.11 28.47 4.61 31.04 5.45"/><polygon class="cls-3" points="31.15 5.39 30.17 1.29 29.6 1.11 28.49 4.53 31.15 5.39"/><polygon class="cls-3" points="31.25 5.33 30.17 1.29 29.6 1.11 28.52 4.44 31.25 5.33"/><polygon class="cls-3" points="28.55 4.35 31.36 5.26 30.17 1.29 29.6 1.11 28.55 4.35"/><polygon class="cls-7" points="4.34 16.69 5.26 13.88 1.29 15.07 1.11 15.63 4.34 16.69"/><polygon class="cls-7" points="1.29 15.07 1.11 15.63 4.43 16.72 5.32 13.98 1.29 15.07"/><polygon class="cls-7" points="1.29 15.07 1.11 15.63 4.52 16.75 5.38 14.09 1.29 15.07"/><polygon class="cls-7" points="1.29 15.07 1.11 15.63 4.61 16.77 5.45 14.2 1.29 15.07"/><polygon class="cls-7" points="1.29 15.07 1.11 15.63 4.7 16.8 5.51 14.31 1.29 15.07"/><polygon class="cls-7" points="1.29 15.07 1.11 15.63 4.79 16.83 5.57 14.41 1.29 15.07"/><polygon class="cls-7" points="1.29 15.07 1.11 15.63 4.87 16.86 5.63 14.52 1.29 15.07"/><polygon class="cls-7" points="1.29 15.07 1.11 15.63 4.96 16.89 5.69 14.63 1.29 15.07"/><polygon class="cls-7" points="1.29 15.07 1.11 15.63 5.05 16.91 5.76 14.73 1.29 15.07"/><polygon class="cls-7" points="1.29 15.07 1.11 15.63 5.14 16.94 5.82 14.84 1.29 15.07"/><polygon class="cls-7" points="1.29 15.07 1.11 15.63 5.22 16.97 5.88 14.95 1.29 15.07"/><polygon class="cls-7" points="1.29 15.07 1.11 15.63 5.31 17 5.94 15.06 1.29 15.07"/><polygon class="cls-9" points="1.11 15.63 0.92 16.2 3.43 19.49 4.34 16.69 1.11 15.63"/><polygon class="cls-83" points="0.92 16.2 3.54 19.45 4.43 16.72 1.11 15.63 0.92 16.2"/><polygon class="cls-84" points="0.92 16.2 3.66 19.39 4.52 16.75 1.11 15.63 0.92 16.2"/><polygon class="cls-85" points="0.92 16.2 3.77 19.35 4.61 16.77 1.11 15.63 0.92 16.2"/><polygon class="cls-86" points="0.92 16.2 3.88 19.3 4.7 16.8 1.11 15.63 0.92 16.2"/><polygon class="cls-87" points="0.92 16.2 4 19.25 4.79 16.83 1.11 15.63 0.92 16.2"/><polygon class="cls-88" points="0.92 16.2 4.11 19.2 4.87 16.86 1.11 15.63 0.92 16.2"/><polygon class="cls-89" points="0.92 16.2 4.22 19.15 4.96 16.89 1.11 15.63 0.92 16.2"/><polygon class="cls-90" points="0.92 16.2 4.34 19.1 5.05 16.91 1.11 15.63 0.92 16.2"/><polygon class="cls-91" points="0.92 16.2 4.45 19.05 5.14 16.94 1.11 15.63 0.92 16.2"/><polygon class="cls-92" points="0.92 16.2 4.57 19 5.22 16.97 1.11 15.63 0.92 16.2"/><polygon class="cls-7" points="0.92 16.2 4.68 18.95 5.31 17 1.11 15.63 0.92 16.2"/><polygon class="cls-10" points="44.14 29.62 44.32 29.06 41.8 25.76 40.89 28.56 44.14 29.62"/><polygon class="cls-10" points="41.69 25.81 40.8 28.54 44.14 29.62 44.32 29.06 41.69 25.81"/><polygon class="cls-10" points="41.58 25.86 40.71 28.51 44.14 29.62 44.32 29.06 41.58 25.86"/><polygon class="cls-10" points="41.46 25.91 40.63 28.48 44.14 29.62 44.32 29.06 41.46 25.91"/><polygon class="cls-10" points="41.35 25.96 40.54 28.45 44.14 29.62 44.32 29.06 41.35 25.96"/><polygon class="cls-10" points="41.24 26.01 40.45 28.42 44.14 29.62 44.32 29.06 41.24 26.01"/><polygon class="cls-10" points="41.12 26.06 40.36 28.39 44.14 29.62 44.32 29.06 41.12 26.06"/><polygon class="cls-10" points="41.01 26.11 40.27 28.36 44.14 29.62 44.32 29.06 41.01 26.11"/><polygon class="cls-10" points="40.9 26.16 40.19 28.33 44.14 29.62 44.32 29.06 40.9 26.16"/><polygon class="cls-10" points="40.78 26.2 40.1 28.31 44.14 29.62 44.32 29.06 40.78 26.2"/><polygon class="cls-10" points="40.67 26.25 40.01 28.28 44.14 29.62 44.32 29.06 40.67 26.25"/><polygon class="cls-10" points="40.55 26.3 39.92 28.25 44.14 29.62 44.32 29.06 40.55 26.3"/><polygon class="cls-8" points="40.89 28.56 39.98 31.37 43.95 30.18 44.14 29.62 40.89 28.56"/><polygon class="cls-93" points="39.91 31.26 43.95 30.18 44.14 29.62 40.8 28.54 39.91 31.26"/><polygon class="cls-94" points="39.85 31.15 43.95 30.18 44.14 29.62 40.71 28.51 39.85 31.15"/><polygon class="cls-95" points="39.79 31.05 43.95 30.18 44.14 29.62 40.63 28.48 39.79 31.05"/><polygon class="cls-96" points="39.73 30.94 43.95 30.18 44.14 29.62 40.54 28.45 39.73 30.94"/><polygon class="cls-97" points="39.66 30.83 43.95 30.18 44.14 29.62 40.45 28.42 39.66 30.83"/><polygon class="cls-98" points="39.6 30.72 43.95 30.18 44.14 29.62 40.36 28.39 39.6 30.72"/><polygon class="cls-99" points="39.54 30.62 43.95 30.18 44.14 29.62 40.27 28.36 39.54 30.62"/><polygon class="cls-100" points="39.48 30.51 43.95 30.18 44.14 29.62 40.19 28.33 39.48 30.51"/><polygon class="cls-101" points="39.41 30.4 43.95 30.18 44.14 29.62 40.1 28.31 39.41 30.4"/><polygon class="cls-102" points="39.35 30.3 43.95 30.18 44.14 29.62 40.01 28.28 39.35 30.3"/><polygon class="cls-10" points="39.29 30.19 43.95 30.18 44.14 29.62 39.92 28.25 39.29 30.19"/><polygon class="cls-9" points="3.4 22.62 3.4 19.68 0 22.03 0 22.62 3.4 22.62"/><polygon class="cls-9" points="0 22.03 0 22.62 3.49 22.62 3.49 19.76 0 22.03"/><polygon class="cls-9" points="0 22.03 0 22.62 3.58 22.62 3.58 19.84 0 22.03"/><polygon class="cls-9" points="0 22.03 0 22.62 3.67 22.62 3.67 19.92 0 22.03"/><polygon class="cls-9" points="0 22.03 0 22.62 3.77 22.62 3.77 20.01 0 22.03"/><polygon class="cls-9" points="0 22.03 0 22.62 3.86 22.62 3.86 20.09 0 22.03"/><polygon class="cls-9" points="0 22.03 0 22.62 3.95 22.62 3.95 20.17 0 22.03"/><polygon class="cls-9" points="0 22.03 0 22.62 4.04 22.62 4.04 20.25 0 22.03"/><polygon class="cls-9" points="0 22.03 0 22.62 4.14 22.62 4.14 20.34 0 22.03"/><polygon class="cls-9" points="0 22.03 0 22.62 4.23 22.62 4.23 20.42 0 22.03"/><polygon class="cls-9" points="0 22.03 0 22.62 4.32 22.62 4.32 20.5 0 22.03"/><polygon class="cls-9" points="0 22.03 0 22.62 4.42 22.62 4.42 20.58 0 22.03"/><polygon class="cls-10" points="0 22.62 0 23.22 3.4 25.58 3.4 22.62 0 22.62"/><polygon class="cls-103" points="0 23.22 3.49 25.49 3.49 22.62 0 22.62 0 23.22"/><polygon class="cls-104" points="0 23.22 3.58 25.41 3.58 22.62 0 22.62 0 23.22"/><polygon class="cls-105" points="0 23.22 3.67 25.33 3.67 22.62 0 22.62 0 23.22"/><polygon class="cls-106" points="0 23.22 3.77 25.25 3.77 22.62 0 22.62 0 23.22"/><polygon class="cls-107" points="0 23.22 3.86 25.16 3.86 22.62 0 22.62 0 23.22"/><polygon class="cls-108" points="0 23.22 3.95 25.08 3.95 22.62 0 22.62 0 23.22"/><polygon class="cls-109" points="0 23.22 4.04 25 4.04 22.62 0 22.62 0 23.22"/><polygon class="cls-110" points="0 23.22 4.14 24.92 4.14 22.62 0 22.62 0 23.22"/><polygon class="cls-111" points="0 23.22 4.23 24.83 4.23 22.62 0 22.62 0 23.22"/><polygon class="cls-112" points="0 23.22 4.32 24.75 4.32 22.62 0 22.62 0 23.22"/><polygon class="cls-9" points="0 23.22 4.42 24.67 4.42 22.62 0 22.62 0 23.22"/><polygon class="cls-9" points="45.25 22.62 45.25 22.03 41.84 19.68 41.84 22.62 45.25 22.62"/><polygon class="cls-9" points="41.75 19.76 41.75 22.62 45.25 22.62 45.25 22.03 41.75 19.76"/><polygon class="cls-9" points="41.65 19.84 41.65 22.62 45.25 22.62 45.25 22.03 41.65 19.84"/><polygon class="cls-9" points="41.56 19.92 41.56 22.62 45.25 22.62 45.25 22.03 41.56 19.92"/><polygon class="cls-9" points="41.47 20.01 41.47 22.62 45.25 22.62 45.25 22.03 41.47 20.01"/><polygon class="cls-9" points="41.38 20.09 41.38 22.62 45.25 22.62 45.25 22.03 41.38 20.09"/><polygon class="cls-9" points="41.28 20.17 41.28 22.62 45.25 22.62 45.25 22.03 41.28 20.17"/><polygon class="cls-9" points="41.19 20.25 41.19 22.62 45.25 22.62 45.25 22.03 41.19 20.25"/><polygon class="cls-9" points="41.1 20.34 41.1 22.62 45.25 22.62 45.25 22.03 41.1 20.34"/><polygon class="cls-9" points="41 20.42 41 22.62 45.25 22.62 45.25 22.03 41 20.42"/><polygon class="cls-9" points="40.91 20.5 40.91 22.62 45.25 22.62 45.25 22.03 40.91 20.5"/><polygon class="cls-9" points="40.82 20.58 40.82 22.62 45.25 22.62 45.25 22.03 40.82 20.58"/><polygon class="cls-10" points="41.84 22.62 41.84 25.58 45.25 23.22 45.25 22.62 41.84 22.62"/><polygon class="cls-103" points="41.75 25.49 45.25 23.22 45.25 22.62 41.75 22.62 41.75 25.49"/><polygon class="cls-104" points="41.65 25.41 45.25 23.22 45.25 22.62 41.65 22.62 41.65 25.41"/><polygon class="cls-105" points="41.56 25.33 45.25 23.22 45.25 22.62 41.56 22.62 41.56 25.33"/><polygon class="cls-106" points="41.47 25.25 45.25 23.22 45.25 22.62 41.47 22.62 41.47 25.25"/><polygon class="cls-107" points="41.38 25.16 45.25 23.22 45.25 22.62 41.38 22.62 41.38 25.16"/><polygon class="cls-108" points="41.28 25.08 45.25 23.22 45.25 22.62 41.28 22.62 41.28 25.08"/><polygon class="cls-109" points="41.19 25 45.25 23.22 45.25 22.62 41.19 22.62 41.19 25"/><polygon class="cls-110" points="41.1 24.92 45.25 23.22 45.25 22.62 41.1 22.62 41.1 24.92"/><polygon class="cls-111" points="41 24.83 45.25 23.22 45.25 22.62 41 22.62 41 24.83"/><polygon class="cls-112" points="40.91 24.75 45.25 23.22 45.25 22.62 40.91 22.62 40.91 24.75"/><polygon class="cls-9" points="40.82 24.67 45.25 23.22 45.25 22.62 40.82 22.62 40.82 24.67"/><polygon class="cls-10" points="4.34 28.56 3.43 25.76 0.92 29.06 1.11 29.62 4.34 28.56"/><polygon class="cls-10" points="0.92 29.06 1.11 29.62 4.43 28.54 3.54 25.81 0.92 29.06"/><polygon class="cls-10" points="0.92 29.06 1.11 29.62 4.52 28.51 3.66 25.86 0.92 29.06"/><polygon class="cls-10" points="0.92 29.06 1.11 29.62 4.61 28.48 3.77 25.91 0.92 29.06"/><polygon class="cls-10" points="0.92 29.06 1.11 29.62 4.7 28.45 3.88 25.96 0.92 29.06"/><polygon class="cls-10" points="0.92 29.06 1.11 29.62 4.79 28.42 4 26.01 0.92 29.06"/><polygon class="cls-10" points="0.92 29.06 1.11 29.62 4.87 28.39 4.11 26.06 0.92 29.06"/><polygon class="cls-10" points="0.92 29.06 1.11 29.62 4.96 28.36 4.22 26.11 0.92 29.06"/><polygon class="cls-10" points="0.92 29.06 1.11 29.62 5.05 28.33 4.34 26.16 0.92 29.06"/><polygon class="cls-10" points="0.92 29.06 1.11 29.62 5.14 28.31 4.45 26.2 0.92 29.06"/><polygon class="cls-10" points="0.92 29.06 1.11 29.62 5.22 28.28 4.57 26.25 0.92 29.06"/><polygon class="cls-10" points="0.92 29.06 1.11 29.62 5.31 28.25 4.68 26.3 0.92 29.06"/><polygon class="cls-8" points="1.11 29.62 1.29 30.18 5.26 31.37 4.34 28.56 1.11 29.62"/><polygon class="cls-93" points="1.29 30.18 5.32 31.26 4.43 28.54 1.11 29.62 1.29 30.18"/><polygon class="cls-94" points="1.29 30.18 5.38 31.15 4.52 28.51 1.11 29.62 1.29 30.18"/><polygon class="cls-95" points="1.29 30.18 5.45 31.05 4.61 28.48 1.11 29.62 1.29 30.18"/><polygon class="cls-96" points="1.29 30.18 5.51 30.94 4.7 28.45 1.11 29.62 1.29 30.18"/><polygon class="cls-97" points="1.29 30.18 5.57 30.83 4.79 28.42 1.11 29.62 1.29 30.18"/><polygon class="cls-98" points="1.29 30.18 5.63 30.72 4.87 28.39 1.11 29.62 1.29 30.18"/><polygon class="cls-99" points="1.29 30.18 5.69 30.62 4.96 28.36 1.11 29.62 1.29 30.18"/><polygon class="cls-100" points="1.29 30.18 5.76 30.51 5.05 28.33 1.11 29.62 1.29 30.18"/><polygon class="cls-101" points="1.29 30.18 5.82 30.4 5.14 28.31 1.11 29.62 1.29 30.18"/><polygon class="cls-102" points="1.29 30.18 5.88 30.3 5.22 28.28 1.11 29.62 1.29 30.18"/><polygon class="cls-10" points="1.29 30.18 5.94 30.19 5.31 28.25 1.11 29.62 1.29 30.18"/><polygon class="cls-7" points="44.14 15.63 43.95 15.07 39.98 13.88 40.89 16.69 44.14 15.63"/><polygon class="cls-7" points="39.91 13.98 40.8 16.72 44.14 15.63 43.95 15.07 39.91 13.98"/><polygon class="cls-7" points="39.85 14.09 40.71 16.75 44.14 15.63 43.95 15.07 39.85 14.09"/><polygon class="cls-7" points="39.79 14.2 40.63 16.77 44.14 15.63 43.95 15.07 39.79 14.2"/><polygon class="cls-7" points="39.73 14.31 40.54 16.8 44.14 15.63 43.95 15.07 39.73 14.31"/><polygon class="cls-7" points="39.66 14.41 40.45 16.83 44.14 15.63 43.95 15.07 39.66 14.41"/><polygon class="cls-7" points="39.6 14.52 40.36 16.86 44.14 15.63 43.95 15.07 39.6 14.52"/><polygon class="cls-7" points="39.54 14.63 40.27 16.89 44.14 15.63 43.95 15.07 39.54 14.63"/><polygon class="cls-7" points="39.48 14.73 40.19 16.91 44.14 15.63 43.95 15.07 39.48 14.73"/><polygon class="cls-7" points="39.41 14.84 40.1 16.94 44.14 15.63 43.95 15.07 39.41 14.84"/><polygon class="cls-7" points="39.35 14.95 40.01 16.97 44.14 15.63 43.95 15.07 39.35 14.95"/><polygon class="cls-7" points="39.29 15.06 39.92 17 44.14 15.63 43.95 15.07 39.29 15.06"/><polygon class="cls-9" points="40.89 16.69 41.8 19.49 44.32 16.2 44.14 15.63 40.89 16.69"/><polygon class="cls-83" points="41.69 19.45 44.32 16.2 44.14 15.63 40.8 16.72 41.69 19.45"/><polygon class="cls-84" points="41.58 19.39 44.32 16.2 44.14 15.63 40.71 16.75 41.58 19.39"/><polygon class="cls-85" points="41.46 19.35 44.32 16.2 44.14 15.63 40.63 16.77 41.46 19.35"/><polygon class="cls-86" points="41.35 19.3 44.32 16.2 44.14 15.63 40.54 16.8 41.35 19.3"/><polygon class="cls-87" points="41.24 19.25 44.32 16.2 44.14 15.63 40.45 16.83 41.24 19.25"/><polygon class="cls-88" points="41.12 19.2 44.32 16.2 44.14 15.63 40.36 16.86 41.12 19.2"/><polygon class="cls-89" points="41.01 19.15 44.32 16.2 44.14 15.63 40.27 16.89 41.01 19.15"/><polygon class="cls-90" points="40.9 19.1 44.32 16.2 44.14 15.63 40.19 16.91 40.9 19.1"/><polygon class="cls-91" points="40.78 19.05 44.32 16.2 44.14 15.63 40.1 16.94 40.78 19.05"/><polygon class="cls-92" points="40.67 19 44.32 16.2 44.14 15.63 40.01 16.97 40.67 19"/><polygon class="cls-7" points="40.55 18.95 44.32 16.2 44.14 15.63 39.92 17 40.55 18.95"/><polygon class="cls-8" points="7.07 33.91 5.33 31.54 3.98 35.45 4.31 35.92 7.07 33.91"/><polygon class="cls-8" points="3.98 35.45 4.31 35.92 7.14 33.86 5.45 31.55 3.98 35.45"/><polygon class="cls-8" points="3.98 35.45 4.31 35.92 7.22 33.81 5.58 31.56 3.98 35.45"/><polygon class="cls-8" points="3.98 35.45 4.31 35.92 7.29 33.76 5.7 31.57 3.98 35.45"/><polygon class="cls-8" points="3.98 35.45 4.31 35.92 7.37 33.7 5.83 31.58 3.98 35.45"/><polygon class="cls-8" points="3.98 35.45 4.31 35.92 7.44 33.65 5.95 31.59 3.98 35.45"/><polygon class="cls-8" points="3.98 35.45 4.31 35.92 7.52 33.59 6.08 31.61 3.98 35.45"/><polygon class="cls-8" points="3.98 35.45 4.31 35.92 7.59 33.54 6.2 31.62 3.98 35.45"/><polygon class="cls-8" points="3.98 35.45 4.31 35.92 7.67 33.49 6.33 31.63 3.98 35.45"/><polygon class="cls-8" points="3.98 35.45 4.31 35.92 7.74 33.44 6.45 31.64 3.98 35.45"/><polygon class="cls-8" points="3.98 35.45 4.31 35.92 7.82 33.38 6.58 31.65 3.98 35.45"/><polygon class="cls-8" points="3.98 35.45 4.31 35.92 7.89 33.33 6.7 31.66 3.98 35.45"/><polygon class="cls-6" points="4.31 35.92 4.66 36.4 8.81 36.31 7.07 33.91 4.31 35.92"/><polygon class="cls-73" points="4.66 36.4 8.83 36.19 7.14 33.86 4.31 35.92 4.66 36.4"/><polygon class="cls-74" points="4.66 36.4 8.86 36.06 7.22 33.81 4.31 35.92 4.66 36.4"/><polygon class="cls-75" points="4.66 36.4 8.88 35.94 7.29 33.76 4.31 35.92 4.66 36.4"/><polygon class="cls-76" points="4.66 36.4 8.91 35.82 7.37 33.7 4.31 35.92 4.66 36.4"/><polygon class="cls-77" points="4.66 36.4 8.94 35.7 7.44 33.65 4.31 35.92 4.66 36.4"/><polygon class="cls-78" points="4.66 36.4 8.96 35.58 7.52 33.59 4.31 35.92 4.66 36.4"/><polygon class="cls-79" points="4.66 36.4 8.99 35.46 7.59 33.54 4.31 35.92 4.66 36.4"/><polygon class="cls-80" points="4.66 36.4 9.01 35.34 7.67 33.49 4.31 35.92 4.66 36.4"/><polygon class="cls-81" points="4.66 36.4 9.04 35.22 7.74 33.44 4.31 35.92 4.66 36.4"/><polygon class="cls-82" points="4.66 36.4 9.06 35.1 7.82 33.38 4.31 35.92 4.66 36.4"/><polygon class="cls-8" points="4.66 36.4 9.09 34.98 7.89 33.33 4.31 35.92 4.66 36.4"/><polygon class="cls-5" points="40.92 9.32 40.57 8.85 36.42 8.95 38.16 11.33 40.92 9.32"/><polygon class="cls-52" points="36.4 9.07 38.09 11.38 40.92 9.32 40.57 8.85 36.4 9.07"/><polygon class="cls-53" points="36.37 9.19 38.01 11.44 40.92 9.32 40.57 8.85 36.37 9.19"/><polygon class="cls-54" points="36.35 9.31 37.94 11.49 40.92 9.32 40.57 8.85 36.35 9.31"/><polygon class="cls-55" points="36.32 9.43 37.86 11.55 40.92 9.32 40.57 8.85 36.32 9.43"/><polygon class="cls-56" points="36.3 9.55 37.79 11.6 40.92 9.32 40.57 8.85 36.3 9.55"/><polygon class="cls-57" points="36.27 9.67 37.71 11.65 40.92 9.32 40.57 8.85 36.27 9.67"/><polygon class="cls-58" points="36.25 9.79 37.64 11.71 40.92 9.32 40.57 8.85 36.25 9.79"/><polygon class="cls-59" points="36.22 9.91 37.56 11.76 40.92 9.32 40.57 8.85 36.22 9.91"/><polygon class="cls-60" points="36.19 10.03 37.49 11.82 40.92 9.32 40.57 8.85 36.19 10.03"/><polygon class="cls-61" points="36.17 10.15 37.41 11.87 40.92 9.32 40.57 8.85 36.17 10.15"/><polygon class="cls-62" points="36.14 10.27 37.34 11.93 40.92 9.32 40.57 8.85 36.14 10.27"/><polygon class="cls-7" points="38.16 11.33 39.91 13.72 41.28 9.81 40.92 9.32 38.16 11.33"/><polygon class="cls-63" points="39.78 13.71 41.28 9.81 40.92 9.32 38.09 11.38 39.78 13.71"/><polygon class="cls-64" points="39.66 13.69 41.28 9.81 40.92 9.32 38.01 11.44 39.66 13.69"/><polygon class="cls-65" points="39.54 13.68 41.28 9.81 40.92 9.32 37.94 11.49 39.54 13.68"/><polygon class="cls-66" points="39.41 13.67 41.28 9.81 40.92 9.32 37.86 11.55 39.41 13.67"/><polygon class="cls-67" points="39.29 13.66 41.28 9.81 40.92 9.32 37.79 11.6 39.29 13.66"/><polygon class="cls-68" points="39.17 13.64 41.28 9.81 40.92 9.32 37.71 11.65 39.17 13.64"/><polygon class="cls-69" points="39.04 13.63 41.28 9.81 40.92 9.32 37.64 11.71 39.04 13.63"/><polygon class="cls-70" points="38.92 13.62 41.28 9.81 40.92 9.32 37.56 11.76 38.92 13.62"/><polygon class="cls-71" points="38.8 13.61 41.28 9.81 40.92 9.32 37.49 11.82 38.8 13.61"/><polygon class="cls-72" points="38.67 13.59 41.28 9.81 40.92 9.32 37.41 11.87 38.67 13.59"/><polygon class="cls-62" points="38.55 13.58 41.28 9.81 40.92 9.32 37.34 11.93 38.55 13.58"/><polygon class="cls-11" points="20.57 4.43 22.03 0 23.2 0 24.66 4.43 20.57 4.43"/><polygon class="cls-113" points="20.66 4.38 22.04 0 23.19 0 24.58 4.38 20.66 4.38"/><polygon class="cls-114" points="20.74 4.32 22.05 0 23.18 0 24.49 4.32 20.74 4.32"/><polygon class="cls-115" points="20.83 4.26 22.06 0 23.17 0 24.4 4.26 20.83 4.26"/><polygon class="cls-116" points="20.92 4.21 22.07 0 23.16 0 24.31 4.21 20.92 4.21"/><polygon class="cls-117" points="21.01 4.16 22.08 0 23.15 0 24.22 4.16 21.01 4.16"/><polygon class="cls-118" points="21.09 4.1 22.09 0 23.14 0 24.14 4.1 21.09 4.1"/><polygon class="cls-119" points="21.18 4.04 22.11 0 23.13 0 24.05 4.04 21.18 4.04"/><polygon class="cls-120" points="21.27 3.99 22.12 0 23.12 0 23.96 3.99 21.27 3.99"/><polygon class="cls-121" points="21.36 3.93 22.13 0 23.11 0 23.87 3.93 21.36 3.93"/><polygon class="cls-122" points="21.45 3.88 22.14 0 23.09 0 23.79 3.88 21.45 3.88"/><polygon class="cls-123" points="21.54 3.82 22.15 0 23.08 0 23.7 3.82 21.54 3.82"/><polygon class="cls-124" points="21.62 3.77 22.16 0 23.07 0 23.61 3.77 21.62 3.77"/><polygon class="cls-125" points="21.71 3.71 22.17 0 23.06 0 23.52 3.71 21.71 3.71"/><polygon class="cls-126" points="21.8 3.66 22.18 0 23.05 0 23.43 3.66 21.8 3.66"/><polygon class="cls-127" points="21.89 3.6 22.19 0 23.04 0 23.34 3.6 21.89 3.6"/><polygon class="cls-128" points="21.97 3.55 22.2 0 23.03 0 23.26 3.55 21.97 3.55"/><polygon class="cls-129" points="22.06 3.49 22.22 0 23.02 0 23.17 3.49 22.06 3.49"/><polygon class="cls-130" points="22.15 3.44 22.23 0 23 0 23.08 3.44 22.15 3.44"/><rect class="cls-131" x="22.24" width="0.76" height="3.38"/><polygon points="20.57 40.82 22.03 45.25 23.2 45.25 24.66 40.82 20.57 40.82"/><polygon class="cls-24" points="20.66 40.88 22.04 45.25 23.19 45.25 24.58 40.88 20.66 40.88"/><polygon class="cls-25" points="20.74 40.93 22.05 45.25 23.18 45.25 24.49 40.93 20.74 40.93"/><polygon class="cls-28" points="20.83 40.99 22.06 45.25 23.17 45.25 24.4 40.99 20.83 40.99"/><polygon class="cls-132" points="20.92 41.04 22.07 45.25 23.16 45.25 24.31 41.04 20.92 41.04"/><polygon class="cls-4" points="21.01 41.1 22.08 45.25 23.15 45.25 24.22 41.1 21.01 41.1"/><polygon class="cls-44" points="21.09 41.15 22.09 45.25 23.14 45.25 24.14 41.15 21.09 41.15"/><polygon class="cls-46" points="21.18 41.21 22.11 45.25 23.13 45.25 24.05 41.21 21.18 41.21"/><polygon class="cls-48" points="21.27 41.27 22.12 45.25 23.12 45.25 23.96 41.27 21.27 41.27"/><polygon class="cls-51" points="21.36 41.32 22.13 45.25 23.11 45.25 23.87 41.32 21.36 41.32"/><polygon class="cls-73" points="21.45 41.38 22.14 45.25 23.09 45.25 23.79 41.38 21.45 41.38"/><polygon class="cls-76" points="21.54 41.43 22.15 45.25 23.08 45.25 23.7 41.43 21.54 41.43"/><polygon class="cls-78" points="21.62 41.48 22.16 45.25 23.07 45.25 23.61 41.48 21.62 41.48"/><polygon class="cls-80" points="21.71 41.54 22.17 45.25 23.06 45.25 23.52 41.54 21.71 41.54"/><polygon class="cls-8" points="21.8 41.59 22.18 45.25 23.05 45.25 23.43 41.59 21.8 41.59"/><polygon class="cls-133" points="21.89 41.65 22.19 45.25 23.04 45.25 23.34 41.65 21.89 41.65"/><polygon class="cls-96" points="21.97 41.71 22.2 45.25 23.03 45.25 23.26 41.71 21.97 41.71"/><polygon class="cls-99" points="22.06 41.76 22.22 45.25 23.02 45.25 23.17 41.76 22.06 41.76"/><polygon class="cls-100" points="22.15 41.82 22.23 45.25 23 45.25 23.08 41.82 22.15 41.82"/><rect class="cls-10" x="22.24" y="41.87" width="0.76" height="3.38"/><polygon class="cls-3" points="15.05 5.95 15.07 1.29 16.19 0.93 18.93 4.68 15.05 5.95"/><polygon class="cls-134" points="15.12 5.87 15.08 1.29 16.18 0.94 18.83 4.66 15.12 5.87"/><polygon class="cls-135" points="15.18 5.79 15.09 1.29 16.17 0.94 18.73 4.63 15.18 5.79"/><polygon class="cls-15" points="15.25 5.71 15.1 1.28 16.16 0.94 18.63 4.61 15.25 5.71"/><polygon class="cls-136" points="15.31 5.63 15.11 1.28 16.15 0.94 18.53 4.58 15.31 5.63"/><polygon class="cls-137" points="15.38 5.55 15.12 1.28 16.14 0.95 18.43 4.56 15.38 5.55"/><polygon class="cls-138" points="15.45 5.48 15.13 1.27 16.13 0.95 18.33 4.54 15.45 5.48"/><polygon class="cls-139" points="15.52 5.4 15.14 1.27 16.11 0.95 18.23 4.51 15.52 5.4"/><polygon class="cls-140" points="15.58 5.32 15.15 1.27 16.1 0.96 18.13 4.49 15.58 5.32"/><polygon class="cls-117" points="15.65 5.24 15.16 1.26 16.09 0.96 18.03 4.46 15.65 5.24"/><polygon class="cls-118" points="15.71 5.16 15.17 1.26 16.08 0.96 17.93 4.43 15.71 5.16"/><polygon class="cls-141" points="15.78 5.08 15.18 1.26 16.07 0.97 17.83 4.41 15.78 5.08"/><polygon class="cls-142" points="15.85 5 15.19 1.25 16.06 0.97 17.73 4.38 15.85 5"/><polygon class="cls-143" points="15.91 4.92 15.2 1.25 16.05 0.97 17.63 4.36 15.91 4.92"/><polygon class="cls-144" points="15.98 4.84 15.21 1.25 16.04 0.98 17.53 4.33 15.98 4.84"/><polygon class="cls-145" points="16.05 4.76 15.22 1.24 16.02 0.98 17.43 4.31 16.05 4.76"/><polygon class="cls-146" points="16.11 4.68 15.23 1.24 16.01 0.98 17.34 4.29 16.11 4.68"/><polygon class="cls-126" points="16.18 4.61 15.24 1.24 16 0.99 17.23 4.26 16.18 4.61"/><polygon class="cls-147" points="16.25 4.53 15.25 1.23 15.99 0.99 17.14 4.24 16.25 4.53"/><polygon class="cls-148" points="17.04 4.21 16.31 4.45 15.26 1.23 15.98 0.99 17.04 4.21"/><polygon class="cls-4" points="26.3 40.57 29.04 44.32 30.17 43.95 30.18 39.3 26.3 40.57"/><polygon class="cls-44" points="26.4 40.59 29.05 44.32 30.16 43.96 30.12 39.38 26.4 40.59"/><polygon class="cls-46" points="26.5 40.62 29.06 44.31 30.14 43.96 30.05 39.46 26.5 40.62"/><polygon class="cls-50" points="26.6 40.65 29.07 44.31 30.14 43.96 29.98 39.54 26.6 40.65"/><polygon class="cls-6" points="26.7 40.67 29.09 44.31 30.13 43.97 29.92 39.62 26.7 40.67"/><polygon class="cls-76" points="26.8 40.7 29.1 44.31 30.11 43.97 29.85 39.7 26.8 40.7"/><polygon class="cls-149" points="26.9 40.72 29.11 44.3 30.11 43.98 29.78 39.78 26.9 40.72"/><polygon class="cls-81" points="27 40.74 29.12 44.3 30.09 43.98 29.72 39.86 27 40.74"/><polygon class="cls-133" points="27.1 40.77 29.13 44.3 30.08 43.98 29.65 39.94 27.1 40.77"/><polygon class="cls-96" points="27.2 40.8 29.14 44.29 30.07 43.99 29.58 40.02 27.2 40.8"/><polygon class="cls-99" points="27.3 40.82 29.15 44.29 30.06 43.99 29.52 40.09 27.3 40.82"/><polygon class="cls-102" points="27.4 40.84 29.16 44.29 30.05 43.99 29.45 40.17 27.4 40.84"/><polygon class="cls-104" points="27.5 40.87 29.17 44.28 30.04 44 29.38 40.25 27.5 40.87"/><polygon class="cls-106" points="27.6 40.9 29.18 44.28 30.03 44 29.32 40.33 27.6 40.9"/><polygon class="cls-110" points="27.7 40.92 29.2 44.28 30.02 44 29.25 40.41 27.7 40.92"/><polygon class="cls-112" points="27.8 40.95 29.21 44.27 30.01 44.01 29.18 40.49 27.8 40.95"/><polygon class="cls-84" points="27.9 40.97 29.22 44.27 30 44.01 29.12 40.57 27.9 40.97"/><polygon class="cls-87" points="28 40.99 29.23 44.27 29.99 44.02 29.05 40.65 28 40.99"/><polygon class="cls-90" points="28.1 41.02 29.24 44.27 29.98 44.02 28.98 40.73 28.1 41.02"/><polygon class="cls-7" points="28.92 40.81 28.2 41.05 29.25 44.26 29.97 44.02 28.92 40.81"/><polygon class="cls-5" points="10.27 9.11 8.84 4.68 9.79 3.97 13.57 6.7 10.27 9.11"/><polygon class="cls-150" points="10.31 9.01 8.85 4.67 9.78 3.98 13.47 6.71 10.31 9.01"/><polygon class="cls-37" points="10.35 8.91 8.86 4.66 9.78 3.99 13.37 6.71 10.35 8.91"/><polygon class="cls-151" points="10.38 8.82 8.87 4.66 9.77 3.99 13.26 6.72 10.38 8.82"/><polygon class="cls-152" points="10.42 8.72 8.88 4.65 9.76 4 13.16 6.73 10.42 8.72"/><polygon class="cls-20" points="10.46 8.63 8.89 4.64 9.75 4 13.06 6.73 10.46 8.63"/><polygon class="cls-135" points="10.5 8.53 8.9 4.63 9.74 4.01 12.96 6.74 10.5 8.53"/><polygon class="cls-15" points="10.54 8.44 8.91 4.63 9.73 4.02 12.85 6.75 10.54 8.44"/><polygon class="cls-153" points="10.58 8.34 8.92 4.62 9.73 4.02 12.75 6.76 10.58 8.34"/><polygon class="cls-154" points="10.62 8.24 8.93 4.61 9.72 4.03 12.65 6.76 10.62 8.24"/><polygon class="cls-114" points="10.66 8.15 8.94 4.61 9.71 4.04 12.54 6.77 10.66 8.15"/><polygon class="cls-155" points="10.7 8.05 8.95 4.6 9.7 4.04 12.44 6.78 10.7 8.05"/><polygon class="cls-156" points="10.73 7.96 8.96 4.59 9.69 4.05 12.34 6.79 10.73 7.96"/><polygon class="cls-118" points="10.77 7.86 8.96 4.59 9.68 4.06 12.24 6.79 10.77 7.86"/><polygon class="cls-141" points="10.81 7.76 8.97 4.58 9.68 4.06 12.13 6.8 10.81 7.76"/><polygon class="cls-157" points="10.85 7.67 8.98 4.57 9.67 4.07 12.03 6.81 10.85 7.67"/><polygon class="cls-158" points="10.89 7.57 8.99 4.57 9.66 4.08 11.93 6.82 10.89 7.57"/><polygon class="cls-123" points="10.93 7.48 9 4.56 9.65 4.08 11.83 6.82 10.93 7.48"/><polygon class="cls-159" points="10.97 7.38 9.01 4.55 9.64 4.09 11.72 6.83 10.97 7.38"/><polygon class="cls-160" points="11.62 6.84 11.01 7.29 9.02 4.54 9.63 4.1 11.62 6.84"/><polygon class="cls-6" points="31.66 38.55 35.44 41.27 36.39 40.58 34.97 36.15 31.66 38.55"/><polygon class="cls-76" points="31.76 38.54 35.45 41.27 36.38 40.58 34.93 36.24 31.76 38.54"/><polygon class="cls-79" points="31.86 38.53 35.46 41.26 36.37 40.59 34.89 36.34 31.86 38.53"/><polygon class="cls-8" points="31.97 38.53 35.47 41.25 36.36 40.6 34.85 36.44 31.97 38.53"/><polygon class="cls-95" points="32.07 38.52 35.47 41.25 36.35 40.6 34.81 36.53 32.07 38.52"/><polygon class="cls-99" points="32.17 38.51 35.48 41.24 36.34 40.61 34.77 36.63 32.17 38.51"/><polygon class="cls-102" points="32.28 38.51 35.49 41.23 36.33 40.62 34.73 36.72 32.28 38.51"/><polygon class="cls-105" points="32.38 38.5 35.5 41.23 36.33 40.62 34.69 36.82 32.38 38.5"/><polygon class="cls-108" points="32.48 38.49 35.51 41.22 36.31 40.63 34.66 36.91 32.48 38.49"/><polygon class="cls-161" points="32.59 38.49 35.52 41.22 36.31 40.64 34.62 37.01 32.59 38.49"/><polygon class="cls-84" points="32.69 38.48 35.52 41.21 36.3 40.64 34.58 37.11 32.69 38.48"/><polygon class="cls-87" points="32.79 38.47 35.53 41.2 36.29 40.65 34.54 37.2 32.79 38.47"/><polygon class="cls-91" points="32.89 38.47 35.54 41.2 36.28 40.66 34.5 37.3 32.89 38.47"/><polygon class="cls-63" points="32.99 38.46 35.55 41.19 36.27 40.66 34.46 37.39 32.99 38.46"/><polygon class="cls-67" points="33.1 38.45 35.56 41.18 36.26 40.67 34.42 37.49 33.1 38.45"/><polygon class="cls-70" points="33.2 38.44 35.56 41.18 36.25 40.67 34.38 37.59 33.2 38.44"/><polygon class="cls-61" points="33.3 38.44 35.57 41.17 36.24 40.68 34.34 37.68 33.3 38.44"/><polygon class="cls-58" points="33.41 38.43 35.58 41.16 36.23 40.69 34.3 37.78 33.41 38.43"/><polygon class="cls-162" points="33.51 38.42 35.59 41.16 36.22 40.69 34.27 37.87 33.51 38.42"/><rect class="cls-5" x="34.53" y="37.87" width="0.76" height="3.38" transform="translate(-16.58 28.06) rotate(-35.98)"/><polygon class="cls-62" points="6.7 13.58 3.98 9.81 4.66 8.85 9.09 10.27 6.7 13.58"/><polygon class="cls-57" points="6.71 13.48 3.98 9.8 4.66 8.86 8.99 10.31 6.71 13.48"/><polygon class="cls-52" points="6.71 13.37 3.99 9.79 4.65 8.87 8.9 10.35 6.71 13.37"/><polygon class="cls-40" points="6.72 13.27 4 9.78 4.64 8.88 8.8 10.39 6.72 13.27"/><polygon class="cls-163" points="6.72 13.17 4 9.77 4.64 8.89 8.71 10.43 6.72 13.17"/><polygon class="cls-164" points="6.73 13.07 4.01 9.76 4.63 8.89 8.61 10.47 6.73 13.07"/><polygon class="cls-32" points="6.74 12.96 4.01 9.75 4.62 8.9 8.52 10.51 6.74 12.96"/><polygon class="cls-20" points="6.74 12.86 4.02 9.74 4.62 8.91 8.42 10.55 6.74 12.86"/><polygon class="cls-135" points="6.75 12.76 4.03 9.73 4.61 8.92 8.33 10.59 6.75 12.76"/><polygon class="cls-15" points="6.76 12.65 4.03 9.72 4.6 8.93 8.23 10.62 6.76 12.65"/><polygon class="cls-153" points="6.76 12.55 4.04 9.72 4.6 8.94 8.14 10.66 6.76 12.55"/><polygon class="cls-154" points="6.77 12.45 4.05 9.71 4.59 8.95 8.04 10.7 6.77 12.45"/><polygon class="cls-114" points="6.78 12.35 4.05 9.7 4.58 8.96 7.95 10.74 6.78 12.35"/><polygon class="cls-155" points="6.78 12.24 4.06 9.69 4.58 8.96 7.85 10.78 6.78 12.24"/><polygon class="cls-156" points="6.79 12.14 4.07 9.68 4.57 8.97 7.75 10.82 6.79 12.14"/><polygon class="cls-165" points="6.8 12.04 4.07 9.67 4.57 8.98 7.66 10.86 6.8 12.04"/><polygon class="cls-119" points="6.8 11.94 4.08 9.66 4.56 8.99 7.57 10.9 6.8 11.94"/><polygon class="cls-142" points="6.81 11.83 4.09 9.65 4.55 9 7.47 10.94 6.81 11.83"/><polygon class="cls-166" points="6.82 11.73 4.09 9.64 4.54 9.01 7.37 10.97 6.82 11.73"/><polygon class="cls-167" points="7.28 11.01 6.82 11.63 4.1 9.63 4.54 9.02 7.28 11.01"/><polygon class="cls-8" points="36.14 34.98 40.57 36.4 41.28 35.45 38.55 31.66 36.14 34.98"/><polygon class="cls-96" points="36.24 34.94 40.58 36.4 41.27 35.45 38.54 31.77 36.24 34.94"/><polygon class="cls-100" points="36.33 34.9 40.59 36.39 41.26 35.46 38.54 31.87 36.33 34.9"/><polygon class="cls-103" points="36.43 34.86 40.59 36.38 41.25 35.47 38.53 31.98 36.43 34.86"/><polygon class="cls-107" points="36.52 34.83 40.6 36.37 41.25 35.48 38.52 32.08 36.52 34.83"/><polygon class="cls-161" points="36.62 34.79 40.6 36.36 41.24 35.49 38.51 32.18 36.62 34.79"/><polygon class="cls-84" points="36.72 34.75 40.61 36.35 41.23 35.5 38.51 32.28 36.72 34.75"/><polygon class="cls-88" points="36.81 34.71 40.62 36.34 41.22 35.51 38.5 32.39 36.81 34.71"/><polygon class="cls-168" points="36.91 34.67 40.63 36.33 41.22 35.52 38.49 32.49 36.91 34.67"/><polygon class="cls-66" points="37 34.63 40.63 36.32 41.21 35.52 38.48 32.59 37 34.63"/><polygon class="cls-69" points="37.1 34.59 40.64 36.31 41.2 35.53 38.48 32.7 37.1 34.59"/><polygon class="cls-61" points="37.19 34.55 40.64 36.3 41.2 35.54 38.47 32.8 37.19 34.55"/><polygon class="cls-57" points="37.29 34.51 40.65 36.29 41.19 35.55 38.46 32.9 37.29 34.51"/><polygon class="cls-54" points="37.38 34.48 40.66 36.28 41.18 35.56 38.45 33.01 37.38 34.48"/><polygon class="cls-41" points="37.48 34.44 40.66 36.27 41.17 35.57 38.45 33.11 37.48 34.44"/><polygon class="cls-39" points="37.57 34.4 40.67 36.27 41.16 35.58 38.44 33.21 37.57 34.4"/><polygon class="cls-163" points="37.67 34.36 40.68 36.26 41.16 35.59 38.43 33.32 37.67 34.36"/><polygon class="cls-35" points="37.76 34.32 40.68 36.25 41.15 35.6 38.43 33.42 37.76 34.32"/><polygon class="cls-33" points="37.86 34.28 40.69 36.24 41.14 35.6 38.42 33.52 37.86 34.28"/><polygon class="cls-3" points="38.41 33.63 37.95 34.24 40.7 36.23 41.13 35.61 38.41 33.63"/><polygon class="cls-7" points="4.68 18.95 0.92 16.2 1.29 15.07 5.94 15.06 4.68 18.95"/><polygon class="cls-68" points="4.65 18.85 0.92 16.19 1.28 15.08 5.86 15.12 4.65 18.85"/><polygon class="cls-62" points="4.63 18.75 0.93 16.18 1.28 15.1 5.78 15.19 4.63 18.75"/><polygon class="cls-57" points="4.6 18.65 0.93 16.16 1.28 15.11 5.71 15.26 4.6 18.65"/><polygon class="cls-52" points="4.58 18.55 0.93 16.15 1.27 15.12 5.63 15.32 4.58 18.55"/><polygon class="cls-40" points="4.55 18.45 0.94 16.14 1.27 15.13 5.55 15.39 4.55 18.45"/><polygon class="cls-163" points="4.53 18.35 0.94 16.13 1.26 15.14 5.47 15.46 4.53 18.35"/><polygon class="cls-164" points="4.5 18.25 0.94 16.12 1.26 15.15 5.39 15.52 4.5 18.25"/><polygon class="cls-32" points="4.48 18.15 0.95 16.11 1.26 15.16 5.31 15.59 4.48 18.15"/><polygon class="cls-169" points="4.45 18.05 0.95 16.1 1.25 15.17 5.23 15.65 4.45 18.05"/><polygon class="cls-18" points="4.43 17.94 0.95 16.09 1.25 15.18 5.15 15.72 4.43 17.94"/><polygon class="cls-170" points="4.4 17.84 0.96 16.08 1.25 15.19 5.07 15.79 4.4 17.84"/><polygon class="cls-136" points="4.38 17.74 0.96 16.07 1.24 15.2 4.99 15.85 4.38 17.74"/><polygon class="cls-171" points="4.35 17.64 0.97 16.06 1.24 15.21 4.91 15.92 4.35 17.64"/><polygon class="cls-172" points="4.33 17.54 0.97 16.05 1.24 15.22 4.83 15.99 4.33 17.54"/><polygon class="cls-115" points="4.3 17.44 0.97 16.04 1.23 15.23 4.75 16.05 4.3 17.44"/><polygon class="cls-173" points="4.28 17.34 0.98 16.03 1.23 15.24 4.67 16.12 4.28 17.34"/><polygon class="cls-174" points="4.25 17.24 0.98 16.02 1.22 15.25 4.59 16.19 4.25 17.24"/><polygon class="cls-175" points="4.23 17.14 0.98 16.01 1.22 15.27 4.51 16.25 4.23 17.14"/><polygon class="cls-120" points="4.43 16.32 4.21 17.04 0.99 16 1.22 15.28 4.43 16.32"/><polygon class="cls-10" points="39.29 30.19 43.95 30.18 44.32 29.06 40.55 26.3 39.29 30.19"/><polygon class="cls-106" points="39.37 30.12 43.95 30.17 44.31 29.07 40.58 26.41 39.37 30.12"/><polygon class="cls-161" points="39.45 30.06 43.95 30.16 44.31 29.08 40.6 26.5 39.45 30.06"/><polygon class="cls-85" points="39.53 29.99 43.96 30.15 44.31 29.09 40.63 26.61 39.53 29.99"/><polygon class="cls-89" points="39.61 29.93 43.96 30.14 44.3 29.1 40.66 26.71 39.61 29.93"/><polygon class="cls-63" points="39.69 29.86 43.97 30.13 44.3 29.11 40.68 26.81 39.69 29.86"/><polygon class="cls-68" points="39.77 29.79 43.97 30.12 44.3 29.12 40.7 26.91 39.77 29.79"/><polygon class="cls-62" points="39.85 29.73 43.97 30.11 44.29 29.13 40.73 27.01 39.85 29.73"/><polygon class="cls-58" points="39.93 29.66 43.98 30.1 44.29 29.14 40.76 27.11 39.93 29.66"/><polygon class="cls-54" points="40.01 29.59 43.98 30.09 44.28 29.15 40.78 27.21 40.01 29.59"/><polygon class="cls-176" points="40.09 29.53 43.98 30.07 44.28 29.16 40.8 27.31 40.09 29.53"/><polygon class="cls-177" points="40.16 29.46 43.99 30.06 44.28 29.17 40.83 27.41 40.16 29.46"/><polygon class="cls-178" points="40.24 29.4 43.99 30.05 44.27 29.18 40.85 27.51 40.24 29.4"/><polygon class="cls-34" points="40.32 29.33 44 30.04 44.27 29.19 40.88 27.61 40.32 29.33"/><polygon class="cls-152" points="40.4 29.26 44 30.03 44.27 29.2 40.91 27.71 40.4 29.26"/><polygon class="cls-20" points="40.48 29.2 44 30.02 44.26 29.21 40.93 27.81 40.48 29.2"/><polygon class="cls-18" points="40.56 29.13 44.01 30.01 44.26 29.23 40.95 27.91 40.56 29.13"/><polygon class="cls-179" points="40.64 29.07 44.01 30 44.25 29.24 40.98 28.01 40.64 29.07"/><polygon class="cls-13" points="40.72 29 44.02 29.99 44.25 29.25 41.01 28.11 40.72 29"/><polygon class="cls-11" points="41.03 28.21 40.8 28.93 44.02 29.98 44.25 29.26 41.03 28.21"/><polygon class="cls-9" points="4.42 24.67 0 23.22 0 22.03 4.42 20.58 4.42 24.67"/><polygon class="cls-87" points="4.36 24.58 0 23.21 0 22.04 4.36 20.67 4.36 24.58"/><polygon class="cls-168" points="4.31 24.5 0 23.2 0 22.05 4.31 20.76 4.31 24.5"/><polygon class="cls-67" points="4.25 24.41 0 23.19 0 22.07 4.25 20.85 4.25 24.41"/><polygon class="cls-72" points="4.2 24.32 0 23.18 0 22.08 4.2 20.93 4.2 24.32"/><polygon class="cls-58" points="4.14 24.23 0 23.16 0 22.09 4.14 21.02 4.14 24.23"/><polygon class="cls-53" points="4.09 24.14 0 23.15 0 22.1 4.09 21.11 4.09 24.14"/><polygon class="cls-180" points="4.03 24.06 0 23.14 0 22.11 4.03 21.2 4.03 24.06"/><polygon class="cls-181" points="3.98 23.97 0 23.13 0 22.12 3.98 21.28 3.98 23.97"/><polygon class="cls-35" points="3.92 23.88 0 23.12 0 22.13 3.92 21.37 3.92 23.88"/><polygon class="cls-182" points="3.87 23.8 0 23.11 0 22.14 3.87 21.46 3.87 23.8"/><polygon class="cls-21" points="3.81 23.71 0 23.1 0 22.16 3.81 21.55 3.81 23.71"/><polygon class="cls-183" points="3.76 23.62 0 23.09 0 22.17 3.76 21.63 3.76 23.62"/><polygon class="cls-179" points="3.71 23.53 0 23.08 0 22.18 3.71 21.72 3.71 23.53"/><polygon class="cls-13" points="3.65 23.45 0 23.07 0 22.19 3.65 21.81 3.65 23.45"/><polygon class="cls-137" points="3.6 23.36 0 23.05 0 22.2 3.6 21.89 3.6 23.36"/><polygon class="cls-138" points="3.54 23.27 0 23.04 0 22.21 3.54 21.98 3.54 23.27"/><polygon class="cls-184" points="3.49 23.18 0 23.03 0 22.22 3.49 22.07 3.49 23.18"/><polygon class="cls-116" points="3.43 23.1 0 23.02 0 22.23 3.43 22.16 3.43 23.1"/><rect class="cls-174" y="22.24" width="3.37" height="0.77"/><polygon class="cls-9" points="40.82 24.67 45.25 23.22 45.25 22.03 40.82 20.58 40.82 24.67"/><polygon class="cls-87" points="40.87 24.58 45.25 23.21 45.25 22.04 40.87 20.67 40.87 24.58"/><polygon class="cls-168" points="40.93 24.5 45.25 23.2 45.25 22.05 40.93 20.76 40.93 24.5"/><polygon class="cls-67" points="40.98 24.41 45.25 23.19 45.25 22.07 40.98 20.85 40.98 24.41"/><polygon class="cls-72" points="41.04 24.32 45.25 23.18 45.25 22.08 41.04 20.93 41.04 24.32"/><polygon class="cls-58" points="41.09 24.23 45.25 23.16 45.25 22.09 41.09 21.02 41.09 24.23"/><polygon class="cls-53" points="41.15 24.14 45.25 23.15 45.25 22.1 41.15 21.11 41.15 24.14"/><polygon class="cls-180" points="41.2 24.06 45.25 23.14 45.25 22.11 41.2 21.2 41.2 24.06"/><polygon class="cls-181" points="41.26 23.97 45.25 23.13 45.25 22.12 41.26 21.28 41.26 23.97"/><polygon class="cls-35" points="41.31 23.88 45.25 23.12 45.25 22.13 41.31 21.37 41.31 23.88"/><polygon class="cls-182" points="41.37 23.8 45.25 23.11 45.25 22.14 41.37 21.46 41.37 23.8"/><polygon class="cls-21" points="41.42 23.71 45.25 23.1 45.25 22.16 41.42 21.55 41.42 23.71"/><polygon class="cls-183" points="41.47 23.62 45.25 23.09 45.25 22.17 41.47 21.63 41.47 23.62"/><polygon class="cls-179" points="41.53 23.53 45.25 23.08 45.25 22.18 41.53 21.72 41.53 23.53"/><polygon class="cls-13" points="41.58 23.45 45.25 23.07 45.25 22.19 41.58 21.81 41.58 23.45"/><polygon class="cls-137" points="41.64 23.36 45.25 23.05 45.25 22.2 41.64 21.89 41.64 23.36"/><polygon class="cls-138" points="41.69 23.27 45.25 23.04 45.25 22.21 41.69 21.98 41.69 23.27"/><polygon class="cls-184" points="41.75 23.18 45.25 23.03 45.25 22.22 41.75 22.07 41.75 23.18"/><polygon class="cls-116" points="41.8 23.1 45.25 23.02 45.25 22.23 41.8 22.16 41.8 23.1"/><rect class="cls-174" x="41.86" y="22.24" width="3.39" height="0.77"/><polygon class="cls-10" points="5.94 30.19 1.29 30.18 0.92 29.06 4.68 26.3 5.94 30.19"/><polygon class="cls-106" points="5.86 30.12 1.28 30.17 0.92 29.07 4.65 26.41 5.86 30.12"/><polygon class="cls-161" points="5.78 30.06 1.28 30.16 0.93 29.08 4.63 26.5 5.78 30.06"/><polygon class="cls-85" points="5.71 29.99 1.28 30.15 0.93 29.09 4.6 26.61 5.71 29.99"/><polygon class="cls-89" points="5.63 29.93 1.27 30.14 0.93 29.1 4.58 26.71 5.63 29.93"/><polygon class="cls-63" points="5.55 29.86 1.27 30.13 0.94 29.11 4.55 26.81 5.55 29.86"/><polygon class="cls-68" points="5.47 29.79 1.26 30.12 0.94 29.12 4.53 26.91 5.47 29.79"/><polygon class="cls-62" points="5.39 29.73 1.26 30.11 0.94 29.13 4.5 27.01 5.39 29.73"/><polygon class="cls-58" points="5.31 29.66 1.26 30.1 0.95 29.14 4.48 27.11 5.31 29.66"/><polygon class="cls-54" points="5.23 29.59 1.25 30.09 0.95 29.15 4.45 27.21 5.23 29.59"/><polygon class="cls-176" points="5.15 29.53 1.25 30.07 0.95 29.16 4.43 27.31 5.15 29.53"/><polygon class="cls-177" points="5.07 29.46 1.25 30.06 0.96 29.17 4.4 27.41 5.07 29.46"/><polygon class="cls-178" points="4.99 29.4 1.24 30.05 0.96 29.18 4.38 27.51 4.99 29.4"/><polygon class="cls-34" points="4.91 29.33 1.24 30.04 0.97 29.19 4.35 27.61 4.91 29.33"/><polygon class="cls-152" points="4.83 29.26 1.24 30.03 0.97 29.2 4.33 27.71 4.83 29.26"/><polygon class="cls-20" points="4.75 29.2 1.23 30.02 0.97 29.21 4.3 27.81 4.75 29.2"/><polygon class="cls-18" points="4.67 29.13 1.23 30.01 0.98 29.23 4.28 27.91 4.67 29.13"/><polygon class="cls-179" points="4.59 29.07 1.22 30 0.98 29.24 4.25 28.01 4.59 29.07"/><polygon class="cls-13" points="4.51 29 1.22 29.99 0.98 29.25 4.23 28.11 4.51 29"/><polygon class="cls-11" points="4.21 28.21 4.43 28.93 1.22 29.98 0.99 29.26 4.21 28.21"/><polygon class="cls-7" points="40.55 18.95 44.32 16.2 43.95 15.07 39.29 15.06 40.55 18.95"/><polygon class="cls-68" points="40.58 18.85 44.31 16.19 43.95 15.08 39.37 15.12 40.58 18.85"/><polygon class="cls-62" points="40.6 18.75 44.31 16.18 43.95 15.1 39.45 15.19 40.6 18.75"/><polygon class="cls-57" points="40.63 18.65 44.31 16.16 43.96 15.11 39.53 15.26 40.63 18.65"/><polygon class="cls-52" points="40.66 18.55 44.3 16.15 43.96 15.12 39.61 15.32 40.66 18.55"/><polygon class="cls-40" points="40.68 18.45 44.3 16.14 43.97 15.13 39.69 15.39 40.68 18.45"/><polygon class="cls-163" points="40.7 18.35 44.3 16.13 43.97 15.14 39.77 15.46 40.7 18.35"/><polygon class="cls-164" points="40.73 18.25 44.29 16.12 43.97 15.15 39.85 15.52 40.73 18.25"/><polygon class="cls-32" points="40.76 18.15 44.29 16.11 43.98 15.16 39.93 15.59 40.76 18.15"/><polygon class="cls-169" points="40.78 18.05 44.28 16.1 43.98 15.17 40.01 15.65 40.78 18.05"/><polygon class="cls-18" points="40.8 17.94 44.28 16.09 43.98 15.18 40.09 15.72 40.8 17.94"/><polygon class="cls-170" points="40.83 17.84 44.28 16.08 43.99 15.19 40.16 15.79 40.83 17.84"/><polygon class="cls-136" points="40.85 17.74 44.27 16.07 43.99 15.2 40.24 15.85 40.85 17.74"/><polygon class="cls-171" points="40.88 17.64 44.27 16.06 44 15.21 40.32 15.92 40.88 17.64"/><polygon class="cls-172" points="40.91 17.54 44.27 16.05 44 15.22 40.4 15.99 40.91 17.54"/><polygon class="cls-115" points="40.93 17.44 44.26 16.04 44 15.23 40.48 16.05 40.93 17.44"/><polygon class="cls-173" points="40.95 17.34 44.26 16.03 44.01 15.24 40.56 16.12 40.95 17.34"/><polygon class="cls-174" points="40.98 17.24 44.25 16.02 44.01 15.25 40.64 16.19 40.98 17.24"/><polygon class="cls-175" points="41.01 17.14 44.25 16.01 44.02 15.27 40.72 16.25 41.01 17.14"/><polygon class="cls-120" points="40.8 16.32 41.03 17.04 44.25 16 44.02 15.28 40.8 16.32"/><polygon class="cls-8" points="9.09 34.98 4.66 36.4 3.98 35.45 6.7 31.66 9.09 34.98"/><polygon class="cls-96" points="8.99 34.94 4.66 36.4 3.98 35.45 6.71 31.77 8.99 34.94"/><polygon class="cls-100" points="8.9 34.9 4.65 36.39 3.99 35.46 6.71 31.87 8.9 34.9"/><polygon class="cls-103" points="8.8 34.86 4.64 36.38 4 35.47 6.72 31.98 8.8 34.86"/><polygon class="cls-107" points="8.71 34.83 4.64 36.37 4 35.48 6.72 32.08 8.71 34.83"/><polygon class="cls-161" points="8.61 34.79 4.63 36.36 4.01 35.49 6.73 32.18 8.61 34.79"/><polygon class="cls-84" points="8.52 34.75 4.62 36.35 4.01 35.5 6.74 32.28 8.52 34.75"/><polygon class="cls-88" points="8.42 34.71 4.62 36.34 4.02 35.51 6.74 32.39 8.42 34.71"/><polygon class="cls-168" points="8.33 34.67 4.61 36.33 4.03 35.52 6.75 32.49 8.33 34.67"/><polygon class="cls-66" points="8.23 34.63 4.6 36.32 4.03 35.52 6.76 32.59 8.23 34.63"/><polygon class="cls-69" points="8.14 34.59 4.6 36.31 4.04 35.53 6.76 32.7 8.14 34.59"/><polygon class="cls-61" points="8.04 34.55 4.59 36.3 4.05 35.54 6.77 32.8 8.04 34.55"/><polygon class="cls-57" points="7.95 34.51 4.58 36.29 4.05 35.55 6.78 32.9 7.95 34.51"/><polygon class="cls-54" points="7.85 34.48 4.58 36.28 4.06 35.56 6.78 33.01 7.85 34.48"/><polygon class="cls-41" points="7.75 34.44 4.57 36.27 4.07 35.57 6.79 33.11 7.75 34.44"/><polygon class="cls-39" points="7.66 34.4 4.57 36.27 4.07 35.58 6.8 33.21 7.66 34.4"/><polygon class="cls-163" points="7.57 34.36 4.56 36.26 4.08 35.59 6.8 33.32 7.57 34.36"/><polygon class="cls-35" points="7.47 34.32 4.55 36.25 4.09 35.6 6.81 33.42 7.47 34.32"/><polygon class="cls-33" points="7.37 34.28 4.54 36.24 4.09 35.6 6.82 33.52 7.37 34.28"/><polygon class="cls-3" points="6.82 33.63 7.28 34.24 4.54 36.23 4.1 35.61 6.82 33.63"/><polygon class="cls-62" points="38.55 13.58 41.28 9.81 40.57 8.85 36.14 10.27 38.55 13.58"/><polygon class="cls-57" points="38.54 13.48 41.27 9.8 40.58 8.86 36.24 10.31 38.54 13.48"/><polygon class="cls-52" points="38.54 13.37 41.26 9.79 40.59 8.87 36.33 10.35 38.54 13.37"/><polygon class="cls-40" points="38.53 13.27 41.25 9.78 40.59 8.88 36.43 10.39 38.53 13.27"/><polygon class="cls-163" points="38.52 13.17 41.25 9.77 40.6 8.89 36.52 10.43 38.52 13.17"/><polygon class="cls-164" points="38.51 13.07 41.24 9.76 40.6 8.89 36.62 10.47 38.51 13.07"/><polygon class="cls-32" points="38.51 12.96 41.23 9.75 40.61 8.9 36.72 10.51 38.51 12.96"/><polygon class="cls-20" points="38.5 12.86 41.22 9.74 40.62 8.91 36.81 10.55 38.5 12.86"/><polygon class="cls-135" points="38.49 12.76 41.22 9.73 40.63 8.92 36.91 10.59 38.49 12.76"/><polygon class="cls-15" points="38.48 12.65 41.21 9.72 40.63 8.93 37 10.62 38.48 12.65"/><polygon class="cls-153" points="38.48 12.55 41.2 9.72 40.64 8.94 37.1 10.66 38.48 12.55"/><polygon class="cls-154" points="38.47 12.45 41.2 9.71 40.64 8.95 37.19 10.7 38.47 12.45"/><polygon class="cls-114" points="38.46 12.35 41.19 9.7 40.65 8.96 37.29 10.74 38.46 12.35"/><polygon class="cls-155" points="38.45 12.24 41.18 9.69 40.66 8.96 37.38 10.78 38.45 12.24"/><polygon class="cls-156" points="38.45 12.14 41.17 9.68 40.66 8.97 37.48 10.82 38.45 12.14"/><polygon class="cls-165" points="38.44 12.04 41.16 9.67 40.67 8.98 37.57 10.86 38.44 12.04"/><polygon class="cls-119" points="38.43 11.94 41.16 9.66 40.68 8.99 37.67 10.9 38.43 11.94"/><polygon class="cls-142" points="38.43 11.83 41.15 9.65 40.68 9 37.76 10.94 38.43 11.83"/><polygon class="cls-166" points="38.42 11.73 41.14 9.64 40.69 9.01 37.86 10.97 38.42 11.73"/><polygon class="cls-167" points="37.95 11.01 38.41 11.63 41.13 9.63 40.7 9.02 37.95 11.01"/><polygon class="cls-6" points="13.57 38.55 9.79 41.27 8.84 40.58 10.27 36.15 13.57 38.55"/><polygon class="cls-76" points="13.47 38.54 9.78 41.27 8.85 40.58 10.31 36.24 13.47 38.54"/><polygon class="cls-79" points="13.37 38.53 9.78 41.26 8.86 40.59 10.35 36.34 13.37 38.53"/><polygon class="cls-8" points="13.26 38.53 9.77 41.25 8.87 40.6 10.38 36.44 13.26 38.53"/><polygon class="cls-95" points="13.16 38.52 9.76 41.25 8.88 40.6 10.42 36.53 13.16 38.52"/><polygon class="cls-99" points="13.06 38.51 9.75 41.24 8.88 40.61 10.46 36.63 13.06 38.51"/><polygon class="cls-102" points="12.96 38.51 9.74 41.23 8.89 40.62 10.5 36.72 12.96 38.51"/><polygon class="cls-105" points="12.85 38.5 9.73 41.23 8.9 40.62 10.54 36.82 12.85 38.5"/><polygon class="cls-108" points="12.75 38.49 9.73 41.22 8.91 40.63 10.58 36.91 12.75 38.49"/><polygon class="cls-161" points="12.65 38.49 9.72 41.22 8.92 40.64 10.62 37.01 12.65 38.49"/><polygon class="cls-84" points="12.54 38.48 9.71 41.21 8.93 40.64 10.66 37.11 12.54 38.48"/><polygon class="cls-87" points="12.44 38.47 9.7 41.2 8.94 40.65 10.7 37.2 12.44 38.47"/><polygon class="cls-91" points="12.34 38.47 9.69 41.2 8.94 40.66 10.73 37.3 12.34 38.47"/><polygon class="cls-63" points="12.24 38.46 9.68 41.19 8.95 40.66 10.77 37.39 12.24 38.46"/><polygon class="cls-67" points="12.13 38.45 9.68 41.18 8.96 40.67 10.81 37.49 12.13 38.45"/><polygon class="cls-70" points="12.03 38.44 9.67 41.18 8.97 40.67 10.85 37.59 12.03 38.44"/><polygon class="cls-61" points="11.93 38.44 9.66 41.17 8.98 40.68 10.89 37.68 11.93 38.44"/><polygon class="cls-58" points="11.83 38.43 9.65 41.16 8.98 40.69 10.93 37.78 11.83 38.43"/><polygon class="cls-162" points="11.72 38.42 9.64 41.16 8.99 40.69 10.97 37.87 11.72 38.42"/><polygon class="cls-5" points="11.01 37.97 11.62 38.41 9.63 41.15 9 40.7 11.01 37.97"/><polygon class="cls-5" points="34.97 9.11 36.39 4.68 35.44 3.97 31.66 6.7 34.97 9.11"/><polygon class="cls-150" points="34.93 9.01 36.38 4.67 35.45 3.98 31.76 6.71 34.93 9.01"/><polygon class="cls-37" points="34.89 8.91 36.37 4.66 35.46 3.99 31.86 6.71 34.89 8.91"/><polygon class="cls-151" points="34.85 8.82 36.36 4.66 35.47 3.99 31.97 6.72 34.85 8.82"/><polygon class="cls-152" points="34.81 8.72 36.35 4.65 35.47 4 32.07 6.73 34.81 8.72"/><polygon class="cls-20" points="34.77 8.63 36.34 4.64 35.48 4 32.17 6.73 34.77 8.63"/><polygon class="cls-135" points="34.73 8.53 36.33 4.63 35.49 4.01 32.28 6.74 34.73 8.53"/><polygon class="cls-15" points="34.69 8.44 36.33 4.63 35.5 4.02 32.38 6.75 34.69 8.44"/><polygon class="cls-153" points="34.66 8.34 36.31 4.62 35.51 4.02 32.48 6.76 34.66 8.34"/><polygon class="cls-154" points="34.62 8.24 36.31 4.61 35.52 4.03 32.59 6.76 34.62 8.24"/><polygon class="cls-114" points="34.58 8.15 36.3 4.61 35.52 4.04 32.69 6.77 34.58 8.15"/><polygon class="cls-155" points="34.54 8.05 36.29 4.6 35.53 4.04 32.79 6.78 34.54 8.05"/><polygon class="cls-156" points="34.5 7.96 36.28 4.59 35.54 4.05 32.89 6.79 34.5 7.96"/><polygon class="cls-118" points="34.46 7.86 36.27 4.59 35.55 4.06 32.99 6.79 34.46 7.86"/><polygon class="cls-141" points="34.42 7.76 36.26 4.58 35.56 4.06 33.1 6.8 34.42 7.76"/><polygon class="cls-157" points="34.38 7.67 36.25 4.57 35.56 4.07 33.2 6.81 34.38 7.67"/><polygon class="cls-158" points="34.34 7.57 36.24 4.57 35.57 4.08 33.3 6.82 34.34 7.57"/><polygon class="cls-123" points="34.3 7.48 36.23 4.56 35.58 4.08 33.41 6.82 34.3 7.48"/><polygon class="cls-159" points="34.27 7.38 36.22 4.55 35.59 4.09 33.51 6.83 34.27 7.38"/><polygon class="cls-160" points="33.61 6.84 34.23 7.29 36.21 4.54 35.6 4.1 33.61 6.84"/><polygon class="cls-4" points="18.93 40.57 16.19 44.32 15.07 43.95 15.05 39.3 18.93 40.57"/><polygon class="cls-44" points="18.83 40.59 16.18 44.32 15.08 43.96 15.12 39.38 18.83 40.59"/><polygon class="cls-46" points="18.73 40.62 16.17 44.31 15.09 43.96 15.18 39.46 18.73 40.62"/><polygon class="cls-50" points="18.63 40.65 16.16 44.31 15.1 43.96 15.25 39.54 18.63 40.65"/><polygon class="cls-6" points="18.53 40.67 16.15 44.31 15.11 43.97 15.31 39.62 18.53 40.67"/><polygon class="cls-76" points="18.43 40.7 16.14 44.31 15.12 43.97 15.38 39.7 18.43 40.7"/><polygon class="cls-149" points="18.33 40.72 16.13 44.3 15.13 43.98 15.45 39.78 18.33 40.72"/><polygon class="cls-81" points="18.23 40.74 16.11 44.3 15.14 43.98 15.52 39.86 18.23 40.74"/><polygon class="cls-133" points="18.13 40.77 16.1 44.3 15.15 43.98 15.58 39.94 18.13 40.77"/><polygon class="cls-96" points="18.03 40.8 16.09 44.29 15.16 43.99 15.65 40.02 18.03 40.8"/><polygon class="cls-99" points="17.93 40.82 16.08 44.29 15.17 43.99 15.71 40.09 17.93 40.82"/><polygon class="cls-102" points="17.83 40.84 16.07 44.29 15.18 43.99 15.78 40.17 17.83 40.84"/><polygon class="cls-104" points="17.73 40.87 16.06 44.28 15.19 44 15.85 40.25 17.73 40.87"/><polygon class="cls-106" points="17.63 40.9 16.05 44.28 15.2 44 15.91 40.33 17.63 40.9"/><polygon class="cls-110" points="17.53 40.92 16.04 44.28 15.21 44 15.98 40.41 17.53 40.92"/><polygon class="cls-112" points="17.43 40.95 16.02 44.27 15.22 44.01 16.05 40.49 17.43 40.95"/><polygon class="cls-84" points="17.34 40.97 16.01 44.27 15.23 44.01 16.11 40.57 17.34 40.97"/><polygon class="cls-87" points="17.23 40.99 16 44.27 15.24 44.02 16.18 40.65 17.23 40.99"/><polygon class="cls-90" points="17.14 41.02 15.99 44.27 15.25 44.02 16.25 40.73 17.14 41.02"/><polygon class="cls-7" points="16.31 40.81 17.04 41.05 15.98 44.26 15.26 44.02 16.31 40.81"/><polygon class="cls-3" points="30.18 5.95 30.17 1.29 29.04 0.93 26.3 4.68 30.18 5.95"/><polygon class="cls-134" points="30.12 5.87 30.16 1.29 29.05 0.94 26.4 4.66 30.12 5.87"/><polygon class="cls-135" points="30.05 5.79 30.14 1.29 29.06 0.94 26.5 4.63 30.05 5.79"/><polygon class="cls-15" points="29.98 5.71 30.14 1.28 29.07 0.94 26.6 4.61 29.98 5.71"/><polygon class="cls-136" points="29.92 5.63 30.13 1.28 29.09 0.94 26.7 4.58 29.92 5.63"/><polygon class="cls-137" points="29.85 5.55 30.11 1.28 29.1 0.95 26.8 4.56 29.85 5.55"/><polygon class="cls-138" points="29.78 5.48 30.11 1.27 29.11 0.95 26.9 4.54 29.78 5.48"/><polygon class="cls-139" points="29.72 5.4 30.09 1.27 29.12 0.95 27 4.51 29.72 5.4"/><polygon class="cls-140" points="29.65 5.32 30.08 1.27 29.13 0.96 27.1 4.49 29.65 5.32"/><polygon class="cls-117" points="29.58 5.24 30.07 1.26 29.14 0.96 27.2 4.46 29.58 5.24"/><polygon class="cls-118" points="29.52 5.16 30.06 1.26 29.15 0.96 27.3 4.43 29.52 5.16"/><polygon class="cls-141" points="29.45 5.08 30.05 1.26 29.16 0.97 27.4 4.41 29.45 5.08"/><polygon class="cls-142" points="29.38 5 30.04 1.25 29.17 0.97 27.5 4.38 29.38 5"/><polygon class="cls-143" points="29.32 4.92 30.03 1.25 29.18 0.97 27.6 4.36 29.32 4.92"/><polygon class="cls-144" points="29.25 4.84 30.02 1.25 29.2 0.98 27.7 4.33 29.25 4.84"/><polygon class="cls-145" points="29.18 4.76 30.01 1.24 29.21 0.98 27.8 4.31 29.18 4.76"/><polygon class="cls-146" points="29.12 4.68 30 1.24 29.22 0.98 27.9 4.29 29.12 4.68"/><polygon class="cls-126" points="29.05 4.61 29.99 1.24 29.23 0.99 28 4.26 29.05 4.61"/><polygon class="cls-147" points="28.98 4.53 29.98 1.23 29.24 0.99 28.1 4.24 28.98 4.53"/><polygon class="cls-148" points="28.2 4.21 28.92 4.45 29.97 1.23 29.25 0.99 28.2 4.21"/><path class="cls-185" d="M34.19,6.71A19.68,19.68,0,1,1,6.7,11.06,19.68,19.68,0,0,1,34.19,6.71Z"/><path class="cls-186" d="M34.14,6.78A19.59,19.59,0,1,1,6.77,11.11,19.59,19.59,0,0,1,34.14,6.78Z"/><path class="cls-187" d="M34.08,6.86A19.5,19.5,0,1,1,6.84,11.18h0A19.49,19.49,0,0,1,34.06,6.84Z"/><path class="cls-188" d="M34,6.93A19.4,19.4,0,1,1,6.9,11.22,19.4,19.4,0,0,1,34,6.93Z"/><path class="cls-189" d="M34,7a19.44,19.44,0,1,1-.07,0Z"/><path class="cls-190" d="M33.91,7.08A19.22,19.22,0,1,1,7.07,11.35v0A19.22,19.22,0,0,1,33.91,7.08Z"/><path class="cls-191" d="M33.86,7.16A19.12,19.12,0,1,1,7.15,11.39,19.13,19.13,0,0,1,33.86,7.16Z"/><path class="cls-192" d="M33.8,7.24a19,19,0,1,1-26.57,4.2A19,19,0,0,1,33.8,7.24Z"/><path class="cls-193" d="M33.75,7.31A18.94,18.94,0,1,1,7.3,11.51h0A18.93,18.93,0,0,1,33.74,7.3Z"/><path class="cls-194" d="M33.69,7.39A18.84,18.84,0,1,1,7.37,11.56h0a18.83,18.83,0,0,1,26.3-4.17Z"/><path class="cls-195" d="M33.64,7.46A18.75,18.75,0,1,1,7.45,11.62h0A18.75,18.75,0,0,1,33.64,7.46Z"/><path class="cls-196" d="M33.58,7.54a18.65,18.65,0,1,1-26,4.18l0-.06A18.64,18.64,0,0,1,33.58,7.54Z"/><path class="cls-197" d="M33.53,7.61A18.56,18.56,0,1,1,7.61,11.72h0A18.56,18.56,0,0,1,33.53,7.61Z"/><path class="cls-198" d="M33.47,7.69A18.46,18.46,0,1,1,7.68,11.77,18.47,18.47,0,0,1,33.47,7.69Z"/><path class="cls-199" d="M33.42,7.77A18.37,18.37,0,1,1,7.76,11.83,18.37,18.37,0,0,1,33.42,7.77Z"/><path class="cls-200" d="M33.36,7.84a18.28,18.28,0,1,1-25.54,4h0A18.28,18.28,0,0,1,33.36,7.84Z"/><path class="cls-201" d="M33.3,7.92a18.18,18.18,0,1,1-25.4,4h0A18.19,18.19,0,0,1,33.3,7.92Z"/><path class="cls-202" d="M33.25,8A18.09,18.09,0,1,1,8,12l0,0A18.09,18.09,0,0,1,33.25,8Z"/><path class="cls-203" d="M33.19,8.07a18,18,0,1,1-25.14,4h0A18,18,0,0,1,33.19,8.07Z"/><path class="cls-204" d="M33.14,8.14a17.9,17.9,0,1,1-25,4A17.9,17.9,0,0,1,33.14,8.14Z"/><path class="cls-205" d="M33.08,8.22A17.81,17.81,0,1,1,8.2,12.17h0A17.81,17.81,0,0,1,33.08,8.22Z"/><path class="cls-206" d="M33,8.3A17.71,17.71,0,1,1,8.27,12.24l0,0A17.7,17.7,0,0,1,33,8.3Z"/><path class="cls-207" d="M33,8.37a17.62,17.62,0,1,1-24.61,3.9h0A17.63,17.63,0,0,1,33,8.37Z"/><path class="cls-208" d="M32.92,8.45A17.52,17.52,0,1,1,8.44,12.32,17.52,17.52,0,0,1,32.92,8.45Z"/><path class="cls-209" d="M32.86,8.52A17.43,17.43,0,1,1,8.52,12.39h0A17.45,17.45,0,0,1,32.86,8.52Z"/><path class="cls-210" d="M32.81,8.6A17.34,17.34,0,1,1,8.59,12.43h0A17.33,17.33,0,0,1,32.81,8.6Z"/><path class="cls-148" d="M32.75,8.67A17.24,17.24,0,1,1,8.67,12.49,17.25,17.25,0,0,1,32.75,8.67Z"/></g></g></g></g><g id="Logo"><path class="cls-211" d="M23.85,24.85h4.83v2H21.32V10.06h7.34v2H23.85v4.75h4.83v2.09H23.85Z"/><path class="cls-211" d="M16.12,10.05h2.49V29.4H28.67v1.92H16.12Z"/><ellipse class="cls-211" cx="22.43" cy="33.84" rx="8.65" ry="0.1"/></g></g></g></svg>