<svg id="Layer_1" data-name="Layer 1" xmlns="http://www.w3.org/2000/svg" xmlns:xlink="http://www.w3.org/1999/xlink" viewBox="0 0 90 90"><defs><style>.cls-1{fill:url(#radial-gradient);}.cls-2{fill:none;stroke:#e45858;}.cls-2,.cls-3{stroke-linecap:round;stroke-width:3px;}.cls-3{stroke:#9f3737;}</style><radialGradient id="radial-gradient" cx="10.39" cy="89.5" r="0.5" gradientTransform="matrix(90, 0, 0, -90, -890, 8100)" gradientUnits="userSpaceOnUse"><stop offset="0" stop-opacity="0.6"/><stop offset="0.79" stop-opacity="0.6"/><stop offset="1" stop-opacity="0"/></radialGradient></defs><title>Artboard 1dashboard-red-button</title><g id="base"><path class="cls-1" d="M45,0h0A45,45,0,0,1,90,45h0A45,45,0,0,1,45,90h0A45,45,0,0,1,0,45H0A45,45,0,0,1,45,0Z"/><path class="cls-2" d="M45,1.5h0A43.51,43.51,0,0,1,88.5,45h0A43.51,43.51,0,0,1,45,88.5h0A43.51,43.51,0,0,1,1.5,45h0A43.51,43.51,0,0,1,45,1.5Z"/></g><path id="base-2" class="cls-3" d="M45,7.5h0A37.5,37.5,0,0,1,82.5,45h0A37.5,37.5,0,0,1,45,82.5h0A37.5,37.5,0,0,1,7.5,45h0A37.5,37.5,0,0,1,45,7.5Z"/></svg>