<svg id="Layer_1" data-name="Layer 1" xmlns="http://www.w3.org/2000/svg" xmlns:xlink="http://www.w3.org/1999/xlink" viewBox="0 0 110 110"><defs><style>.cls-1{fill:url(#radial-gradient);}.cls-2{fill:none;stroke:#e8c054;stroke-width:2.5px;}.cls-3{stroke:#d99552;stroke-linecap:round;stroke-width:3px;}</style><radialGradient id="radial-gradient" cx="20.32" cy="99.59" r="0.5" gradientTransform="matrix(110, 0, 0, -110, -2180, 11010)" gradientUnits="userSpaceOnUse"><stop offset="0" stop-opacity="0.6"/><stop offset="0.79" stop-opacity="0.6"/><stop offset="1" stop-opacity="0"/></radialGradient></defs><title>Artboard 1dashboard-attention-button</title><g id="FlowApp_CircleBtn_Attention_Base" data-name="FlowApp CircleBtn Attention Base"><g id="base"><path class="cls-1" d="M55,0h0a55,55,0,0,1,55,55h0a55,55,0,0,1-55,55h0A55,55,0,0,1,0,55H0A55,55,0,0,1,55,0Z"/><path class="cls-2" d="M55,1.25h0A53.74,53.74,0,0,1,108.75,55h0A53.74,53.74,0,0,1,55,108.75h0A53.74,53.74,0,0,1,1.25,55h0A53.74,53.74,0,0,1,55,1.25Z"/></g><path id="base-2" class="cls-3" d="M55,7.5h0A47.5,47.5,0,0,1,102.5,55h0A47.5,47.5,0,0,1,55,102.5h0A47.5,47.5,0,0,1,7.5,55h0A47.5,47.5,0,0,1,55,7.5Z"/></g></svg>