<svg id="Layer_1" data-name="Layer 1" xmlns="http://www.w3.org/2000/svg" xmlns:xlink="http://www.w3.org/1999/xlink" viewBox="0 0 110 110"><defs><style>.cls-1{fill:url(#radial-gradient);}.cls-2{fill:none;stroke:#dce1e8;stroke-width:2.5px;}.cls-3{stroke:#c4ccd6;stroke-linecap:round;stroke-width:3px;}.cls-4{fill:#959bac;fill-opacity:0;}.cls-5{fill:#fff;}</style><radialGradient id="radial-gradient" cx="20.32" cy="99.59" r="0.5" gradientTransform="matrix(110, 0, 0, -110, -2180, 11010)" gradientUnits="userSpaceOnUse"><stop offset="0" stop-opacity="0.6"/><stop offset="0.79" stop-opacity="0.6"/><stop offset="1" stop-opacity="0"/></radialGradient></defs><title>Artboard 1dashboard-calendar-button</title><g id="FlowApp_CircleBtn_Attention_Icon01" data-name="FlowApp CircleBtn Attention Icon01"><g id="FlowApp_CircleBtn_Neutral_Base" data-name="FlowApp CircleBtn Neutral Base"><g id="base"><path class="cls-1" d="M55,0h0a55,55,0,0,1,55,55h0a55,55,0,0,1-55,55h0A55,55,0,0,1,0,55H0A55,55,0,0,1,55,0Z"/><path class="cls-2" d="M55,1.25h0A53.74,53.74,0,0,1,108.75,55h0A53.74,53.74,0,0,1,55,108.75h0A53.74,53.74,0,0,1,1.25,55h0A53.74,53.74,0,0,1,55,1.25Z"/></g><path id="base-2" class="cls-3" d="M55,7.5h0A47.5,47.5,0,0,1,102.5,55h0A47.5,47.5,0,0,1,55,102.5h0A47.5,47.5,0,0,1,7.5,55h0A47.5,47.5,0,0,1,55,7.5Z"/></g><g id="FlowApp_icon_appraisalCalendar64" data-name="FlowApp icon appraisalCalendar64"><circle id="size" class="cls-4" cx="55" cy="55" r="32"/><path id="Path_990" data-name="Path 990" class="cls-5" d="M77.58,27H32.42A5.41,5.41,0,0,0,27,32.4V77.58A5.41,5.41,0,0,0,32.4,83H77.58A5.41,5.41,0,0,0,83,77.6V32.42A5.41,5.41,0,0,0,77.6,27Zm2.71,50.58a2.7,2.7,0,0,1-2.7,2.71H32.42a2.7,2.7,0,0,1-2.71-2.7h0V43.15H80.29Zm-28.67-24H71.94a1.13,1.13,0,0,0,1.12-1.12V49.58a1.12,1.12,0,0,0-1.12-1.12H51.62a1.12,1.12,0,0,0-1.12,1.12V52.4a1.12,1.12,0,0,0,1.08,1.14Zm0,11.29H71.94a1.13,1.13,0,0,0,1.12-1.12V60.89a1.12,1.12,0,0,0-1.12-1.12H51.62a1.12,1.12,0,0,0-1.12,1.12v2.82a1.1,1.1,0,0,0,1.08,1.12Zm0,11.29H71.94A1.12,1.12,0,0,0,73.06,75V72.16A1.12,1.12,0,0,0,71.94,71H51.62a1.14,1.14,0,0,0-1.14,1.12V75a1.15,1.15,0,0,0,1.13,1.14ZM41.45,70.19a3.38,3.38,0,1,0,3.38,3.38A3.38,3.38,0,0,0,41.45,70.19ZM48,49.09l-5.09,5.1-1.1,1.1a.93.93,0,0,1-1.25,0l-3.36-3.35a.86.86,0,0,1,0-1.19l1.1-1.1a.87.87,0,0,1,1.2,0l1.6,1.56,4.5-4.47a.86.86,0,0,1,1.19,0L48,47.9A.81.81,0,0,1,48,49l-.07.06Zm0,11.26-5.09,5.09-1.1,1.12a.91.91,0,0,1-1.25,0L37.17,63.2a.86.86,0,0,1,0-1.19l1.1-1.1a.84.84,0,0,1,1.19,0l1.61,1.55,4.5-4.5a.86.86,0,0,1,1.19,0L48,59.15A.8.8,0,0,1,48,60.28l-.06.07Z"/></g></g></svg>