<svg xmlns="http://www.w3.org/2000/svg" width="60" height="60" viewBox="0 0 60 60">
  <g id="FlowApp_TrainingItem_Icon60_Appraisal_Aware" transform="translate(-1430 -1966)">
    <circle id="iconBase" cx="30" cy="30" r="30" transform="translate(1430 1966)" fill="#86bfbc"/>
    <g id="FlowApp_icon60_appraisal" transform="translate(1430 1965.5)">
      <g id="list" transform="translate(11 15.5)">
        <path id="Path_223" data-name="Path 223" d="M9.3,29.563a3.34,3.34,0,1,0,3.341,3.34A3.336,3.336,0,0,0,9.3,29.563ZM16,13.118H40.536A1.129,1.129,0,0,0,41.655,12V9.219A1.129,1.129,0,0,0,40.536,8.1H16A1.129,1.129,0,0,0,14.88,9.219V12A1.107,1.107,0,0,0,16,13.118Zm0,11.155H40.536a1.129,1.129,0,0,0,1.119-1.119v-2.78a1.129,1.129,0,0,0-1.119-1.119H16a1.129,1.129,0,0,0-1.119,1.119v2.78A1.118,1.118,0,0,0,16,24.273Zm0,11.138H40.536a1.129,1.129,0,0,0,1.119-1.119v-2.78a1.129,1.129,0,0,0-1.119-1.119H16a1.129,1.129,0,0,0-1.119,1.119v2.78A1.107,1.107,0,0,0,16,35.412Z" transform="translate(-4.155 -6.6)" fill="#fff"/>
        <path id="Path_225" data-name="Path 225" d="M13.641,14.154a.941.941,0,0,0-.661-.274.913.913,0,0,0-.661.274L8.708,17.765l-1.5-1.483a.941.941,0,0,0-.661-.274.913.913,0,0,0-.661.274l-.613.6a.934.934,0,0,0,0,1.322l2.757,2.757a.941.941,0,0,0,.661.274.913.913,0,0,0,.661-.274l4.869-4.869a.925.925,0,0,0,0-1.322Z" transform="translate(-4.995 -3.63)" fill="#fff"/>
        <path id="Path_994" data-name="Path 994" d="M13.641,14.154a.941.941,0,0,0-.661-.274.913.913,0,0,0-.661.274L8.708,17.765l-1.5-1.483a.941.941,0,0,0-.661-.274.913.913,0,0,0-.661.274l-.613.6a.934.934,0,0,0,0,1.322l2.757,2.757a.941.941,0,0,0,.661.274.913.913,0,0,0,.661-.274l4.869-4.869a.925.925,0,0,0,0-1.322Z" transform="translate(-4.995 -14.78)" fill="#fff"/>
      </g>
    </g>
  </g>
</svg>
