<?xml version="1.0" encoding="utf-8"?>
<!-- Generator: Adobe Illustrator 23.0.3, SVG Export Plug-In . SVG Version: 6.00 Build 0)  -->
<svg version="1.1" id="FlowApp_Dashboard_Megaphone"
	 xmlns="http://www.w3.org/2000/svg" xmlns:xlink="http://www.w3.org/1999/xlink" x="0px" y="0px" viewBox="0 0 90 90"
	 style="enable-background:new 0 0 90 90;" xml:space="preserve">
<style type="text/css">
	.st0{fill:#E45899;}
</style>
<path id="megaphone_angled" class="st0" d="M10.9,57.4c-5.2-1.5-9.5-8.3-10.1-16.5c-0.6-8.3,2.7-15.1,7.6-16.6
	c-1.3,2.4-1.9,8.9-1.3,16.5C7.6,48.5,9.2,55.1,10.9,57.4z M89,40c-1-15.4-4.6-28.7-9-35.2c0,0-0.1-0.1-0.1-0.2
	c-0.1-0.1-0.1-0.2-0.2-0.3c-0.1-0.1-0.1-0.1-0.2-0.2L79.5,4l-0.1-0.2C74.3,5.5,70.3,16.4,69,31.2c1.4,0.1,2.7,0.5,3.9,1.1l0,0
	c3.5,1.7,5.8,5.2,6.3,9.3c0.2,4.6-2.5,8.8-6.6,10.1c-1,0.4-2.1,0.6-3.2,0.6c-0.1,0-0.1,0-0.2,0c1,10.3,3.3,19.1,6.2,24.5
	c-4.3-5.7-8.3-19.7-9.6-36.1c-0.5-6.5-0.6-13-0.2-19.5c1-9.6,4.6-15.7,6.1-17.5c1.3-1.2,2.8-2.2,4.4-2.9C74.4,0.6,72.7,1,71.3,2
	c-0.3,0.2-0.6,0.3-0.8,0.5c-0.5,0.3-0.9,0.6-1.3,0.9c-7.7,6-21.8,19.7-56.2,19.7l0,0.1c-2.1,0-3.2,7.9-2.5,17.5
	c0.7,9.7,3,17.5,5.1,17.5c34.4,0,50.6,14,59.3,20c1.2,0.9,2.6,1.4,4.1,1.5c0.2,0.1,0.5,0.1,0.7,0C86.2,79.6,90.5,61.8,89,40z
	 M36.3,80.3c-0.9-1.3-1.6-2.8-2.1-4.3l-0.6-2c-0.2-2.3,1.2-4.1,1.1-5.5c-1.6-2.4-3.7-4.2-6.2-5.5c-1.8-0.8-3.6-1.4-5.5-1.8
	c-0.4,8.8-0.7,25.9,2.8,27.8c3.4,1.9,10.1-2,10.1-2s2.9-1.3,2.8-3.3L36.3,80.3z"/>
</svg>
