<?xml version="1.0" encoding="utf-8"?>
<!-- Generator: Adobe Illustrator 23.0.3, SVG Export Plug-In . SVG Version: 6.00 Build 0)  -->
<svg version="1.1" id="FlowApp_Dashboard_Forum" xmlns="http://www.w3.org/2000/svg" xmlns:xlink="http://www.w3.org/1999/xlink"
	 x="0px" y="0px" viewBox="0 0 180 180" style="enable-background:new 0 0 180 180;" xml:space="preserve">
<style type="text/css">
	.st0{fill:#E45899;fill-opacity:0;}
	.st1{fill:#E45899;}
</style>
<rect id="iconBase" x="-194.2" y="47.4" class="st0" width="83.4" height="75.9"/>
<path id="forumBoard" class="st1" d="M177.8,19.4v109c0.1,9.3-5.7,16.9-12.9,17.1h-23.6c-4.6-16.1-15.4-28.1-28.5-31.5
	c3.5-3.4,6.5-7.7,8.8-12.6h21.7v22h17.2V24.3H65.8c-4.9-4.9-10.8-7.9-17-8.8c1.3-7.6,6.5-13.1,12.6-13.2h103.4
	C172.1,2.5,177.9,10.1,177.8,19.4z M45,25.6c-14.3,0-25.9,14.8-25.9,33s11.6,33,25.8,33.1c4.9,0,9.7-1.8,13.8-5.1
	c-1.9-14.5,2.1-29.3,10.6-39.2C65.7,34.3,55.9,25.6,45,25.6z M56.1,103.1c-3.6,1.5-7.3,2.3-11,2.4c-3.8,0-7.5-0.8-11-2.4
	c-0.6-0.3-1.3-0.4-1.9-0.4C15.5,102.7,2,120,2,141.2c0,0.1,0,0.1,0,0.2c0.1,9.1,5.8,16.3,12.9,16.3h26.4
	c1.5-21.6,13.9-39.5,30.6-43.8c-3-2.9-5.7-6.5-7.8-10.5c-2-0.5-4-0.8-6.1-0.8C57.3,102.7,56.7,102.8,56.1,103.1L56.1,103.1z
	 M105.2,123.4c-0.6,0-1.3,0.1-1.9,0.4c-7.1,3.2-14.9,3.2-22.1,0c-0.6-0.3-1.3-0.4-1.9-0.4c-16.7,0-30.2,17.3-30.2,38.5
	c0,0.1,0,0.1,0,0.2c0.1,9.1,5.8,16.3,12.9,16.3h60.3c7.1,0,12.9-7.3,12.9-16.3c0.1-21.3-13.3-38.6-30-38.8
	C105.3,123.4,105.3,123.4,105.2,123.4L105.2,123.4z M92.3,112.4c14.3,0,25.9-14.8,25.9-33s-11.6-33-25.9-33s-25.9,14.8-25.9,33
	S78,112.4,92.3,112.4L92.3,112.4z"/>
</svg>
