<svg xmlns="http://www.w3.org/2000/svg" xmlns:xlink="http://www.w3.org/1999/xlink" width="275" height="180" viewBox="0 0 275 180">
  <defs>
    <clipPath id="clip-path">
      <rect id="UpperBar_Logo" width="275" height="180" transform="translate(50 -120)" fill="#fff"/>
    </clipPath>
  </defs>
  <g id="FlowApp_Login_Logo" transform="translate(-50 -40)">
    <g id="Mask_Group_2" data-name="Mask Group 2" transform="translate(0 160)" clip-path="url(#clip-path)">
      <g id="Flow-Strap-Wht" transform="translate(125 65.49)">
        <path id="strap" d="M160.1,111.5V108.5c0-1.737-.972-2.988-2.664-2.988a2.263,2.263,0,0,0-2.124,1.233v-.468a.64.64,0,0,0-.693-.7.661.661,0,0,0-.693.711v5.23a.693.693,0,1,0,1.386,0v-2.925a1.686,1.686,0,0,1,1.737-1.809,1.607,1.607,0,0,1,1.665,1.8v2.943a.677.677,0,0,0,.693.693.685.685,0,0,0,.693-.711m-7.444-5.311a.619.619,0,0,0-.648-.648,1.87,1.87,0,0,0-1.872,1.368v-.63a.655.655,0,0,0-.675-.7.678.678,0,0,0-.7.711v5.23a.661.661,0,0,0,.693.693.682.682,0,0,0,.693-.693v-2.412c0-1.485.711-2.25,1.872-2.25a.659.659,0,0,0,.639-.666m-7.39,4.077c0,.621-.738,1.044-1.6,1.044-.882,0-1.5-.378-1.5-1.044s.6-1.044,1.53-1.044c.774,0,1.575.378,1.575,1.044Zm1.377,1.233v-3.213c0-1.8-1.089-2.781-3.033-2.781a5.838,5.838,0,0,0-1.971.324c-.369.144-.648.324-.648.666a.555.555,0,0,0,.585.576,1.5,1.5,0,0,0,.459-.117,4.1,4.1,0,0,1,1.458-.261c1.278,0,1.764.531,1.764,1.692v.63a2.88,2.88,0,0,0-1.989-.747c-1.431,0-2.5.693-2.5,2,0,1.179,1.017,1.989,2.439,1.989a2.512,2.512,0,0,0,2.079-.882v.135a.662.662,0,0,0,.675.693.646.646,0,0,0,.684-.7Zm-8.6-3.249h-3.618a1.831,1.831,0,0,1,1.836-1.638,1.8,1.8,0,0,1,1.782,1.638m-1.782-2.736a3.244,3.244,0,0,0-3.294,3.375,3.177,3.177,0,0,0,3.357,3.375,3.514,3.514,0,0,0,2.619-1.071.641.641,0,0,0,.18-.4.558.558,0,0,0-.576-.576.645.645,0,0,0-.459.225,2.258,2.258,0,0,1-1.71.72,1.841,1.841,0,0,1-1.989-1.782h4.4c.4,0,.531-.234.531-.468a3.126,3.126,0,0,0-3.06-3.4m-5.095,5.986v-8.659a.693.693,0,0,0-1.386,0V111.5a.693.693,0,0,0,1.386,0m-8.83-2.619a2,2,0,1,1-1.989-2.2,1.99,1.99,0,0,1,1.989,2.2m1.377,0a3.371,3.371,0,1,0-3.366,3.375,3.264,3.264,0,0,0,3.366-3.375m-9.091,2.619V106.83H115.9a.576.576,0,0,0,0-1.152h-1.269v-1.926a.693.693,0,0,0-1.386,0v1.926h-1.116a.576.576,0,1,0,0,1.152h1.116V111.5a.693.693,0,0,0,1.386,0m-7.912-5.293a.569.569,0,0,0-.585-.63.627.627,0,0,0-.648.5l-1.692,4.581-1.881-4.7a.627.627,0,0,0-1.206.234.783.783,0,0,0,.063.279l2.3,5.509a4.37,4.37,0,0,1-1.674,1.836.612.612,0,0,0-.351.576.583.583,0,0,0,.621.558.758.758,0,0,0,.351-.1,6.244,6.244,0,0,0,2.727-3.411c.828-1.9,1.5-3.681,1.944-4.905.009-.09.036-.234.036-.333M97.9,110.269c0,.621-.738,1.044-1.6,1.044-.882,0-1.5-.378-1.5-1.044s.6-1.044,1.53-1.044c.774,0,1.575.378,1.575,1.044Zm1.377,1.233v-3.213c0-1.8-1.089-2.781-3.033-2.781a5.838,5.838,0,0,0-1.971.324c-.369.144-.648.324-.648.666a.555.555,0,0,0,.585.576,1.5,1.5,0,0,0,.459-.117,4.1,4.1,0,0,1,1.458-.261c1.278,0,1.764.531,1.764,1.692v.63a2.88,2.88,0,0,0-1.989-.747c-1.431,0-2.5.693-2.5,2,0,1.179,1.017,1.989,2.439,1.989a2.512,2.512,0,0,0,2.079-.882v.135a.662.662,0,0,0,.675.693.646.646,0,0,0,.684-.7Zm-10.954-5.518a.583.583,0,0,0-1.116,0l-1.476,3.987-1.3-3.96a.544.544,0,0,0-.558-.441.578.578,0,0,0-.63.585.693.693,0,0,0,.063.261l1.809,5.374a.533.533,0,0,0,.576.4.577.577,0,0,0,.585-.414l1.485-4.077,1.5,4.077a.58.58,0,0,0,.585.414.555.555,0,0,0,.576-.4l1.809-5.374a.921.921,0,0,0,.063-.261.578.578,0,0,0-.63-.585.544.544,0,0,0-.558.441l-1.3,3.96ZM77.8,111.619v-5.365a.643.643,0,0,0-.675-.693.651.651,0,0,0-.666.711v.468a2.622,2.622,0,0,0-2.286-1.233,3.257,3.257,0,0,0,0,6.508,2.612,2.612,0,0,0,2.241-1.233v.945c0,1.323-.486,2.106-2.151,2.106a3.548,3.548,0,0,1-1.854-.531.6.6,0,0,0-.981.459.626.626,0,0,0,.369.54,5.1,5.1,0,0,0,2.565.648c2.448,0,3.438-1.3,3.438-3.33m-1.386-2.853a1.983,1.983,0,1,1-3.96,0,1.983,1.983,0,1,1,3.96,0M69.353,111.5V108.5c0-1.737-.972-2.988-2.664-2.988a2.263,2.263,0,0,0-2.124,1.233v-.468a.64.64,0,0,0-.693-.7.661.661,0,0,0-.693.711v5.23a.693.693,0,1,0,1.386,0v-2.925a1.686,1.686,0,0,1,1.737-1.809,1.607,1.607,0,0,1,1.665,1.8v2.943a.677.677,0,0,0,.693.693.69.69,0,0,0,.693-.711m-9.883-7.741a.81.81,0,1,0,.81-.81.818.818,0,0,0-.81.81m1.5,7.741v-5.239a.693.693,0,1,0-1.386,0V111.5a.693.693,0,1,0,1.386,0m-2.664-5.311a.619.619,0,0,0-.648-.648,1.87,1.87,0,0,0-1.872,1.368v-.63a.655.655,0,0,0-.675-.7.678.678,0,0,0-.7.711v5.23a.661.661,0,0,0,.693.693.682.682,0,0,0,.693-.693v-2.412c0-1.485.711-2.25,1.872-2.25a.659.659,0,0,0,.639-.666m-7.615-2.43a.81.81,0,1,0,.81-.81.818.818,0,0,0-.81.81m1.5,7.741v-5.239a.693.693,0,0,0-1.386,0V111.5a.693.693,0,0,0,1.386,0m-4.563-2.619a1.994,1.994,0,0,1-1.971,2.223,2.237,2.237,0,0,1,0-4.446,1.994,1.994,0,0,1,1.971,2.223Zm1.386,0a3.176,3.176,0,0,0-3.078-3.375,2.667,2.667,0,0,0-2.313,1.26v-.5a.664.664,0,0,0-.675-.7.645.645,0,0,0-.666.693v7.993a.693.693,0,0,0,1.386,0V110.98a2.652,2.652,0,0,0,2.268,1.269,3.126,3.126,0,0,0,3.078-3.366Zm-8.452,1.485c0-1.2-.819-1.62-2.412-2.079-1.062-.306-1.5-.468-1.5-.972s.5-.7,1.242-.7a2.87,2.87,0,0,1,1.4.342,1.378,1.378,0,0,0,.6.207.481.481,0,0,0,.531-.513c0-.3-.279-.531-.675-.72a4.408,4.408,0,0,0-1.827-.414c-1.593,0-2.61.72-2.61,1.827,0,1.062.666,1.674,2.475,2.16,1.035.279,1.44.468,1.44.972,0,.459-.423.747-1.224.747a2.75,2.75,0,0,1-1.665-.576.85.85,0,0,0-.54-.207.49.49,0,0,0-.531.486.746.746,0,0,0,.3.576,3.806,3.806,0,0,0,2.34.747c1.737.009,2.655-.792,2.655-1.881M33.349,111.5V108.5c0-1.737-.972-2.988-2.664-2.988a2.263,2.263,0,0,0-2.124,1.233v-.468a.64.64,0,0,0-.693-.7.661.661,0,0,0-.693.711v5.23a.693.693,0,1,0,1.386,0v-2.925a1.686,1.686,0,0,1,1.737-1.809,1.607,1.607,0,0,1,1.665,1.8v2.943a.677.677,0,0,0,.693.693.69.69,0,0,0,.693-.711m-9.874-7.741a.81.81,0,1,0,.81-.81.818.818,0,0,0-.81.81m1.494,7.741v-5.239a.693.693,0,0,0-1.386,0V111.5a.693.693,0,0,0,1.386,0m-7.786,0V108.5c0-1.737-.972-2.988-2.664-2.988A2.263,2.263,0,0,0,12.4,106.74v-.468a.64.64,0,0,0-.693-.7.661.661,0,0,0-.693.711v5.23a.693.693,0,1,0,1.386,0v-2.925a1.686,1.686,0,0,1,1.737-1.809,1.607,1.607,0,0,1,1.665,1.8v2.943a.677.677,0,0,0,.693.693.69.69,0,0,0,.693-.711m-10.7-3.114H2.89l1.8-4.167Zm-1.161-5.824a.625.625,0,0,0-.63-.414.625.625,0,0,0-.63.414L.172,111.232a.688.688,0,0,0-.072.3.637.637,0,0,0,.666.666.635.635,0,0,0,.63-.414l.99-2.151H7.013L8,111.781a.643.643,0,0,0,.63.414.637.637,0,0,0,.666-.666.754.754,0,0,0-.072-.3Z" transform="translate(-17.988 -157.463)" fill="#fff"/>
        <path id="logo" d="M32.088,2.974a1.422,1.422,0,0,0-.09-.44,3.024,3.024,0,0,0-5.967-.009,1.5,1.5,0,0,0-.126.575V72.245a1.348,1.348,0,0,0,.126.575,3.02,3.02,0,0,0,5.958-.009,1.2,1.2,0,0,0,.09-.44c0-.036.027-.072.027-.108V3.082c.009-.036-.018-.072-.018-.108m39.753,60.24a17.924,17.924,0,0,1-26.095,0,19.91,19.91,0,0,1,0-27.344,18.451,18.451,0,0,1,5.266-3.837c.1.306.189.611.306.917A23.637,23.637,0,0,0,64.4,46.384,23.092,23.092,0,0,0,74.761,48.02c.809-.027,1.617-.117,2.426-.225.054.584.081,1.168.081,1.761a19.714,19.714,0,0,1-5.427,13.658M58.785,30.237a18.062,18.062,0,0,1,13.056,5.634,19.484,19.484,0,0,1,3.873,5.913,17.844,17.844,0,0,1-2.5.153v.009a17.66,17.66,0,0,1-6.47-1.312A18.01,18.01,0,0,1,56.79,30.489c-.018-.045-.027-.09-.045-.126a16.915,16.915,0,0,1,2.04-.126M159.874,27.8a3.02,3.02,0,0,0-5.958.018,1.2,1.2,0,0,0-.09.44c0,.036-.027.072-.027.108V56.215a12.643,12.643,0,1,1-25.286,0V28.386a3.068,3.068,0,0,0-2.848-3.046v-.009l-.036-.009-.117-.009c-.036,0-.063-.018-.1-.018h-.081c-.027,0-.045.018-.081.018l-.108.009-.045.009v.009a3.072,3.072,0,0,0-2.866,3.055V56.224a12.643,12.643,0,1,1-25.286,0V28.386a3.106,3.106,0,0,0-3.1-3.1A3.039,3.039,0,0,0,90.9,27.721c0,.009-.018,0-.018.009a18.815,18.815,0,0,1-9.273,12.212c-.1.045-.189.09-.288.135a25.611,25.611,0,0,0-5.347-8.545,23.432,23.432,0,0,0-34.37,0,26.438,26.438,0,0,0,0,36.015,23.451,23.451,0,0,0,34.37,0,26.083,26.083,0,0,0,7.081-18.007,27.212,27.212,0,0,0-.216-3.334c.548-.234,1.1-.476,1.626-.755a23.326,23.326,0,0,0,6.29-4.789V56.215a18.808,18.808,0,0,0,34.622,10.208A18.808,18.808,0,0,0,160,56.215V28.386a1.42,1.42,0,0,0-.126-.584M19.814,0H18.6A18.855,18.855,0,0,0,0,18.825l.009,5.751c0,.018-.009.027-.009.045V71.949a1.5,1.5,0,0,0,.126.575A3.053,3.053,0,0,0,3.1,75.049a3.071,3.071,0,0,0,2.992-2.534,1.422,1.422,0,0,0,.09-.44.455.455,0,0,0,.018-.117c0-.009.009-.009.009-.018V35.026H6.2v-2.9H18.771a3.112,3.112,0,0,0,3.1-3.1,3.051,3.051,0,0,0-2.525-2.974,1.379,1.379,0,0,0-.575-.126H6.218l-.009-7.1A12.64,12.64,0,0,1,18.843,6.191V6.173H18.9V6.2h.917a3.1,3.1,0,0,0,0-6.2" transform="translate(-18 -147.49)" fill="#fff"/>
      </g>
    </g>
  </g>
</svg>
