<svg xmlns="http://www.w3.org/2000/svg" viewBox="0 0 75 60"><defs><style>.a{fill:#ededed;}</style></defs><title>FlowApp_2.81_icon_Dash_Forums</title><path class="a" d="M24.38,41.25a2.62,2.62,0,0,0-.83.13,15.59,15.59,0,0,1-4.8.81,15.59,15.59,0,0,1-4.8-.81,2.56,2.56,0,0,0-.82-.13A13.13,13.13,0,0,0,0,54.45,5.61,5.61,0,0,0,5.63,60H31.88a5.61,5.61,0,0,0,5.62-5.55A13.13,13.13,0,0,0,24.38,41.25ZM18.75,37.5A11.25,11.25,0,1,0,7.5,26.25,11.25,11.25,0,0,0,18.75,37.5ZM69.38,0h-45a5.73,5.73,0,0,0-5.63,5.81v5.44a14.75,14.75,0,0,1,7.5,2.09V7.5H67.5V41.25H60v-7.5H45v7.5H36.07a15,15,0,0,1,4.65,7.5H69.38A5.73,5.73,0,0,0,75,42.94V5.81A5.73,5.73,0,0,0,69.38,0Z"/></svg>