<svg xmlns="http://www.w3.org/2000/svg" width="40" height="40" viewBox="0 0 40 40">
  <g id="Icon_Noticeboard_40_ON" transform="translate(-11 -15)">
    <g id="iconBase" transform="translate(11 15)" fill="#fff" stroke="#e45899" stroke-width="1" opacity="0">
      <circle cx="20" cy="20" r="20" stroke="none"/>
      <circle cx="20" cy="20" r="19.5" fill="none"/>
    </g>
    <g id="Rectangle_666" data-name="Rectangle 666" transform="translate(19 25)" fill="none" stroke="#e45899" stroke-width="3">
      <rect width="25" height="20" rx="2" stroke="none"/>
      <rect x="1.5" y="1.5" width="22" height="17" rx="0.5" fill="none"/>
    </g>
    <path id="Rectangle_667" data-name="Rectangle 667" d="M2,0H8A0,0,0,0,1,8,0V8A0,0,0,0,1,8,8H0A0,0,0,0,1,0,8V2A2,2,0,0,1,2,0Z" transform="translate(36 37)" fill="#e45899"/>
    <path id="Path_1004" data-name="Path 1004" d="M1.014-12.212v5.9H-1.593v-5.9ZM1.131-14.9a1.263,1.263,0,0,1-.117.538,1.48,1.48,0,0,1-.31.44,1.48,1.48,0,0,1-.453.3,1.391,1.391,0,0,1-.556.112,1.337,1.337,0,0,1-.543-.112,1.438,1.438,0,0,1-.444-.3,1.454,1.454,0,0,1-.3-.44A1.306,1.306,0,0,1-1.7-14.9a1.391,1.391,0,0,1,.112-.556,1.424,1.424,0,0,1,.3-.449,1.438,1.438,0,0,1,.444-.3,1.337,1.337,0,0,1,.543-.112,1.39,1.39,0,0,1,.556.112,1.48,1.48,0,0,1,.453.3,1.448,1.448,0,0,1,.31.449A1.345,1.345,0,0,1,1.131-14.9Z" transform="translate(31.705 46.313)" fill="#e45899"/>
  </g>
</svg>
