<svg xmlns="http://www.w3.org/2000/svg" viewBox="0 0 77.14 60"><defs><style>.a{fill:#ededed;}</style></defs><title>FlowApp_2.81_icon_Dash_MyLibrary</title><path class="a" d="M36.43,9.19V58a2.11,2.11,0,0,1-3.11,1.8C24.05,55.09,10.65,53.82,4,53.47a4.18,4.18,0,0,1-4-4.1V4.12A4.2,4.2,0,0,1,4.52,0c7.34.42,21.93,1.93,30.93,7.44A2,2,0,0,1,36.43,9.19ZM77.14,4.12V49.37a4.18,4.18,0,0,1-4,4.1c-6.62.35-20,1.62-29.29,6.29a2.29,2.29,0,0,1-1,.24,2.09,2.09,0,0,1-2.12-2V9.22a2.05,2.05,0,0,1,1-1.77c9-5.51,23.59-7,30.93-7.44h.26A4.18,4.18,0,0,1,77.14,4.12Zm-6,2c-6,.44-17,1.72-24.43,5.41V52.06c8.46-3,18.12-4.07,24.43-4.48Z"/></svg>