<svg xmlns="http://www.w3.org/2000/svg" viewBox="0 0 67.5 60"><defs><style>.a{fill:#ededed;}</style></defs><title>FlowApp_2.81_icon_Dash_NewsFeed</title><path class="a" d="M67.5,26.25A5.62,5.62,0,0,0,63.75,21V7.5A7.5,7.5,0,0,0,56.25,0C48.63,6.56,39.61,15,24.38,15H5.63A5.63,5.63,0,0,0,0,20.63V31.88A5.63,5.63,0,0,0,5.63,37.5h5.06C8.5,45.08,11,51.14,12.9,57.12a2.78,2.78,0,0,0,1.16,1.51c2.44,1.54,8,1.84,11,.6a2.81,2.81,0,0,0,.88-4.63c-2.17-2.11-3.53-4.32-2.32-7.13a1.42,1.42,0,0,0-.12-1.37c-1.91-2.89-.42-7.28,3.34-8.52,13.76.84,22.22,8.72,29.42,14.92a7.5,7.5,0,0,0,7.5-7.5V31.55A5.62,5.62,0,0,0,67.5,26.25ZM56.25,42.64C49.85,37.37,41.6,31.75,30,30.34V22.16c11.6-1.41,19.85-7,26.25-12.3Z"/></svg>