<svg id="Layer_1" data-name="Layer 1" xmlns="http://www.w3.org/2000/svg" viewBox="0 0 102.26 24.56"><defs><style>.cls-1,.cls-3{fill:#7f7f7f;}.cls-2,.cls-3{isolation:isolate;}.cls-3{font-size:9.81px;font-family:Arial-ItalicMT, Arial;font-style:italic;}</style></defs><title>Artboard 1powered-by-flow-logo</title><g id="FlowApp_icon_FlowPower_Grey" data-name="FlowApp icon FlowPower Grey"><g id="FlowApp_icon_FlowPower" data-name="FlowApp icon FlowPower"><path id="Path_261" data-name="Path 261" class="cls-1" d="M67.2,1.56a.53.53,0,0,0,0-.12.81.81,0,0,0-1.6,0,.4.4,0,0,0,0,.15v18a.4.4,0,0,0,0,.15.81.81,0,0,0,1.6,0,.2.2,0,0,0,0-.11V1.55M77.87,17.24a4.91,4.91,0,0,1-6.8.2l-.21-.2a5,5,0,0,1,1.42-8.12c0,.08,0,.16.08.24a6.27,6.27,0,0,0,6.3,3.92c.21,0,.43,0,.65,0,0,.15,0,.3,0,.45a5.08,5.08,0,0,1-1.46,3.56M74.36,8.65a5,5,0,0,1,3.51,1.47,5.17,5.17,0,0,1,1,1.54,3.77,3.77,0,0,1-.67,0h0a4.81,4.81,0,0,1-4.41-3v0l.54,0M101.51,8a.8.8,0,0,0-.92-.65.79.79,0,0,0-.68.65.27.27,0,0,0,0,.12v7.28a3.4,3.4,0,0,1-6.79,0V8.17a.82.82,0,0,0-.77-.79h-.15a.81.81,0,0,0-.77.79v7.25a3.4,3.4,0,0,1-6.79,0h0V8.17a.83.83,0,0,0-.83-.81A.81.81,0,0,0,83,8h0a5,5,0,0,1-2.5,3.18l-.07,0A6.74,6.74,0,0,0,79,9a6.43,6.43,0,0,0-8.89-.33,3.51,3.51,0,0,0-.34.33,6.73,6.73,0,0,0,0,9.37,6.42,6.42,0,0,0,8.9.32c.11-.1.22-.2.33-.32a6.65,6.65,0,0,0,1.9-4.68,6.36,6.36,0,0,0-.06-.87l.44-.2A6.28,6.28,0,0,0,83,11.36v4.05a5,5,0,0,0,5,4.91,5.13,5.13,0,0,0,4.26-2.25,5.14,5.14,0,0,0,7,1.47,4.88,4.88,0,0,0,2.31-4.13V8.17a.4.4,0,0,0,0-.15M63.9.78h-.33a5,5,0,0,0-5,4.9v1.5h0V19.51a.33.33,0,0,0,0,.15.82.82,0,0,0,1.61,0,.43.43,0,0,0,0-.11v0h0V9.9h0V9.14h3.38a.82.82,0,0,0,.83-.8.8.8,0,0,0-.68-.78.37.37,0,0,0-.15,0H60.25V5.68a3.34,3.34,0,0,1,3.39-3.29h.26a.81.81,0,1,0,0-1.62"/><g id="powered_by" data-name="powered by" class="cls-2"><text class="cls-3" transform="translate(0.72 21.38) scale(1.03 1)">powered by</text></g></g></g></svg>