<svg xmlns="http://www.w3.org/2000/svg" width="60" height="39.584" viewBox="0 0 60 39.584">
  <path id="paper" d="M55.293,9.621,36.74.122a1.174,1.174,0,0,0-1.051,0L.461,18.15a.738.738,0,0,0,0,1.367l6.952,3.541L3.929,24.836c-.05.029-.079.065-.122.094a1.957,1.957,0,0,0-.957,1.749,4.983,4.983,0,0,0,2.692,3.965l16.1,8.24a5.691,5.691,0,0,0,2.612.7,3.814,3.814,0,0,0,1.547-.317,3.756,3.756,0,0,0,.446-.245L55.3,23.9c2.634-1.353,4.7-4.39,4.7-6.923v-.432C59.993,14.012,57.927,10.967,55.293,9.621ZM24.836,37.855a2.637,2.637,0,0,1-2.145-.331l-16.1-8.24a3.433,3.433,0,0,1-1.77-2.605c0-.338.115-.461.144-.475a.891.891,0,0,1,.569.151l16.61,8.5A1.126,1.126,0,0,0,23.5,34.6a.724.724,0,0,0-.309-1.108L6.959,25.188l2.31-1.18,12.364,6.3c2.166,1.108,4,3.807,4,5.894A1.654,1.654,0,0,1,24.836,37.855ZM58.014,16.977c0,1.965-1.727,4.512-3.778,5.563L27.607,36.4c0-.065.014-.13.014-.194,0-2.656-2.166-5.837-4.923-7.254L2.843,18.833,36.214,1.755l18.028,9.226c2.051,1.051,3.778,3.6,3.778,5.563v.432ZM36.74,6.822,13.89,19.071a1.134,1.134,0,0,1-.525.13,1.017,1.017,0,0,1-.835-.4.772.772,0,0,1,.309-1.159L35.682,5.4a1.091,1.091,0,0,1,1.36.266A.765.765,0,0,1,36.74,6.822Zm-9.248,9.334-9.651,5.153a1.134,1.134,0,0,1-.525.13,1.041,1.041,0,0,1-.842-.4.772.772,0,0,1,.309-1.159l9.651-5.153a1.091,1.091,0,0,1,1.36.266A.758.758,0,0,1,27.492,16.156Zm4.03,2.217-9.73,5.167a1.134,1.134,0,0,1-.525.13,1.052,1.052,0,0,1-.842-.4.769.769,0,0,1,.317-1.159l9.73-5.167a1.091,1.091,0,0,1,1.36.266A.772.772,0,0,1,31.522,18.373ZM29.68,13.465a.818.818,0,0,0,.453.712l.583.317a.776.776,0,0,0,.2.166l7.29,3.958a1.178,1.178,0,0,0,.54.137,1.134,1.134,0,0,0,.525-.13l9.8-5.189a.779.779,0,0,0,.007-1.425l-8.219-4.4a1.13,1.13,0,0,0-1.051,0l-9.651,5.153A.792.792,0,0,0,29.68,13.465ZM40.317,9.312l6.355,3.4-7.924,4.2-5.175-2.807a1.3,1.3,0,0,0-.151-.13l-.914-.5ZM35.545,20.589l-9.8,5.189a1.106,1.106,0,0,1-.518.13,1.052,1.052,0,0,1-.842-.4.774.774,0,0,1,.317-1.159l9.8-5.189a1.093,1.093,0,0,1,1.36.273A.763.763,0,0,1,35.545,20.589ZM52.94,14.731a.774.774,0,0,1-.317,1.159L28.427,28.7a1.127,1.127,0,0,1-.518.13,1.052,1.052,0,0,1-.842-.4.774.774,0,0,1,.317-1.159l24.189-12.81A1.11,1.11,0,0,1,52.94,14.731Z" transform="translate(0 0.002)"/>
</svg>
