<svg xmlns="http://www.w3.org/2000/svg" width="37.56" height="55" viewBox="0 0 37.56 55">
  <path id="glass" d="M0,8.035H0a3.83,3.83,0,0,0,.06.655L1.742,27.016a3.449,3.449,0,0,0,.052.551l1,10.931h0l.276,2.979v.007l.64,7c.022,1.891,1.7,3.589,4.721,4.8A28.841,28.841,0,0,0,18.78,55a28.841,28.841,0,0,0,10.351-1.72c3.023-1.206,4.691-2.9,4.721-4.8l1.914-20.932a4.353,4.353,0,0,0,.052-.536L37.5,8.683a3.813,3.813,0,0,0,.06-.648V8.012c-.015-2.294-2.07-4.379-5.808-5.868a.814.814,0,0,0-.127-.037,25.527,25.527,0,0,0-3.6-1.1c-.03-.007-.06-.022-.1-.03-.953-.223-1.958-.4-2.994-.551h0C24.4.35,23.851.283,23.3.223c-.045-.007-.089-.007-.134-.015-.529-.052-1.072-.1-1.616-.127-.052,0-.1-.007-.149-.007Q20.586.03,19.748.007H19.6C19.324,0,19.048,0,18.773,0h-.03c-.276,0-.544,0-.819.007h-.149c-.551.015-1.1.03-1.653.067-.052,0-.1.007-.149.007-.544.03-1.08.074-1.616.127-.045.007-.089.007-.134.015-.551.06-1.1.127-1.638.2h0C11.55.573,10.544.76,9.591.975a.482.482,0,0,0-.1.03A26.791,26.791,0,0,0,5.808,2.152C2.078,3.641.015,5.726,0,8.02Zm3.895,22.6a13.373,13.373,0,0,0,3.135,1.72,32.705,32.705,0,0,0,11.743,1.951,32.705,32.705,0,0,0,11.743-1.951,13.108,13.108,0,0,0,3.135-1.72L32.027,48.358c0,.03-.007.052-.007.082,0,1.08-1.34,2.256-3.574,3.15a27,27,0,0,1-9.68,1.586A27.116,27.116,0,0,1,9.092,51.59c-2.241-.894-3.574-2.07-3.574-3.15v-.082l-.387-4.237L4.6,38.335h0L4.49,37.143v-.007Zm-.335-3.7c.037-2.286,4.669-4.535,10.82-5.25.484-.052.968-.089,1.46-.127L14.759,22.6c-.089-.03-.186-.067-.283-.089a4.626,4.626,0,0,0-3.857.626l-4.6,3.135a.926.926,0,0,0-.395.827.9.9,0,0,0,.521.752,21.35,21.35,0,0,0,9.144,1.988,23.911,23.911,0,0,0,2.934-.179.908.908,0,0,0,.685-.454.958.958,0,0,0,.112-.536c.678.067,1.363.1,2.048.1a24.334,24.334,0,0,0,9.085-1.832.919.919,0,0,0,.417-1.355l-1.832-2.718c3.209,1.057,5.25,2.591,5.272,4.081l-.03.357c-.5,2.524-6.6,5.19-15.183,5.19S4.118,29.823,3.612,27.306Zm16.866-7.26a2.8,2.8,0,0,1,2.241-.767A2.829,2.829,0,0,1,24.7,20.128l3.708,5.51a20.892,20.892,0,0,1-10.217,1.087l-.752-1.661a4.543,4.543,0,0,0-1.065-1.482Zm-3.679,8.281a20.229,20.229,0,0,1-8.325-1.132l3.217-2.189A2.8,2.8,0,0,1,15.772,25.8ZM2.174,11.892A13.973,13.973,0,0,0,5.8,13.918,36.238,36.238,0,0,0,18.773,16.07a36.238,36.238,0,0,0,12.972-2.152,13.973,13.973,0,0,0,3.626-2.025L34.276,23.814a15.706,15.706,0,0,0-7.119-3.291L26.2,19.108a4.633,4.633,0,0,0-7.052-.752l-1.34,1.288c-1.177.022-2.338.1-3.478.209a.425.425,0,0,0-.1.007,1.009,1.009,0,0,1-.149.015c-.06.007-.119.007-.186.015V19.9a25.223,25.223,0,0,0-8.377,2.338A10.051,10.051,0,0,0,3.254,23.8ZM1.817,8.035c0-1.482,1.7-3.016,4.662-4.192a28.244,28.244,0,0,1,6.307-1.608c.067-.007.134-.022.2-.03.216-.03.432-.06.648-.082l.209-.022c.171-.022.35-.037.529-.06.089-.007.179-.015.268-.03.209-.022.424-.037.64-.06.06-.007.112-.007.171-.015l.626-.045c.067-.007.134-.007.209-.015.506-.03,1.02-.052,1.541-.06h.149c.261-.007.521-.007.789-.007s.529,0,.789.007H19.7c.521.007,1.035.03,1.541.06.067.007.134.007.209.015l.626.045c.06.007.112.007.171.015.216.015.424.037.64.06.089.007.179.015.268.03.179.015.35.037.529.06l.209.022c.216.03.432.052.648.082.067.007.134.022.2.03a28.244,28.244,0,0,1,6.307,1.608c2.964,1.184,4.662,2.711,4.662,4.192l.022.007c-.007,1.482-1.705,3.008-4.662,4.185A34.37,34.37,0,0,1,18.78,14.253,34.178,34.178,0,0,1,6.486,12.227C3.522,11.051,1.817,9.524,1.817,8.035Z" />
</svg>
