<svg xmlns="http://www.w3.org/2000/svg" width="43" height="43" viewBox="0 0 43 43">
  <defs>
    <style>
      .cls-1 {
      
        stroke-width: 2px;
      }
    </style>
  </defs>
  <g id="icon_Logout" transform="translate(1 1)">
    <path id="Path_108" data-name="Path 108" class="cls-1" d="M34.081,13.325,36.9,7.944,33.313,4.356,27.931,7.175A9.18,9.18,0,0,0,25.113,6.15L23.062,0H17.938l-2.05,5.894a10.709,10.709,0,0,0-2.563,1.025L7.944,4.1,4.1,7.944l2.819,5.381a10.709,10.709,0,0,0-1.025,2.563L0,17.938v5.125l5.894,2.05c.256,1.025.769,1.794,1.025,2.819L4.1,33.313,7.688,36.9l5.381-2.819a9.18,9.18,0,0,0,2.819,1.025L17.938,41h5.125l2.05-5.894c1.025-.256,1.794-.769,2.819-1.025L33.313,36.9,36.9,33.313l-2.819-5.381a9.18,9.18,0,0,0,1.025-2.819L41,23.062V17.938l-5.894-2.05A10.709,10.709,0,0,0,34.081,13.325ZM20.5,28.188A7.55,7.55,0,0,1,12.812,20.5,7.55,7.55,0,0,1,20.5,12.812,7.55,7.55,0,0,1,28.188,20.5,7.55,7.55,0,0,1,20.5,28.188Z"/>
  </g>
</svg>
