<svg xmlns="http://www.w3.org/2000/svg" width="60" height="35.455" viewBox="0 0 60 35.455">
  <path id="crown" d="M50.613,6.258l-7.271-4.9L37.611,5.009,30,0,22.4,5.009,16.69,1.354l-7.3,4.912L0,1.678,9.986,31.832l.267.195c.195.138,4.961,3.429,19.746,3.429s19.551-3.291,19.746-3.429l.267-.195L60,1.678Zm-7.3-2.748,5.423,3.656-4.523,2.2L39.257,6.1Zm-26.6,0L20.751,6.1,15.782,9.37l-4.507-2.2ZM15.936,11.7,30,2.424,44.064,11.7l12.5-6.088L50.751,23.15c-.413.162-1.175.438-2.262.754A66.646,66.646,0,0,1,30,26.133,66.848,66.848,0,0,1,11.527,23.9a24.014,24.014,0,0,1-2.286-.762L3.437,5.609ZM8.43,23.912Zm39.889,6.614c-1.135.616-6.16,2.9-18.311,2.9-12.167,0-17.193-2.294-18.311-2.9L10.059,25.59c3.064.989,9.589,2.578,19.949,2.578s16.885-1.589,19.949-2.578Z"/>
</svg>
