<svg xmlns="http://www.w3.org/2000/svg" width="60" height="39.035" viewBox="0 0 60 39.035">
  <path id="horn" d="M48.934,0a6.763,6.763,0,0,0-1.892.277C45.094.8,42.214,1.572,41.965,1.621a8.115,8.115,0,0,0-4.253,2.645c-.036-.028-.071-.064-.107-.092a.889.889,0,0,0-.768-.107L7.218,13.6a.888.888,0,0,0-.533-.263l-3.556-.405a.986.986,0,0,0-.455.064C2.411,13.114,0,14.308,0,19.5s2.411,6.386,2.688,6.507a.882.882,0,0,0,.356.071.437.437,0,0,0,.1-.007L6.7,25.666a.851.851,0,0,0,.526-.263l4.445,1.429a9.05,9.05,0,0,0,6.407,9.793l7.062,2.055a9.286,9.286,0,0,0,1.764.327h0c.242.021.491.028.732.028a9.059,9.059,0,0,0,7.837-4.544l1.373.441a.893.893,0,0,0,.27.043.883.883,0,0,0,.491-.149.664.664,0,0,0,.107-.092,8.071,8.071,0,0,0,4.253,2.645c.249.057,3.108.818,5.056,1.337A6.652,6.652,0,0,0,48.927,39C55.136,39,60,30.437,60,19.5S55.143,0,48.934,0ZM5.22,24.044l-1.977.228c-.4-.327-1.465-1.5-1.465-4.772s1.074-4.445,1.472-4.772l1.984.228A11.844,11.844,0,0,0,4.288,19.5,11.435,11.435,0,0,0,5.22,24.044ZM27.045,37.158a6.832,6.832,0,0,1-1.4-.256L18.59,34.847a7.193,7.193,0,0,1-5.127-7.439l2.439.782a4.725,4.725,0,0,0,3.371,4.288l7.055,2.055a4.711,4.711,0,0,0,4.85-1.429l2.475.8A7.2,7.2,0,0,1,27.045,37.158Zm-9.16-8.335,11.243,3.62a2.852,2.852,0,0,1-2.276.32L19.8,30.708A2.826,2.826,0,0,1,17.886,28.823ZM36.3,32.884,7.126,23.5a6.047,6.047,0,0,1-.811-1.8,9.762,9.762,0,0,1-.256-2.2A9.429,9.429,0,0,1,6.3,17.409,6.707,6.707,0,0,1,7.14,15.5L36.3,6.116v.043A25.726,25.726,0,0,0,33,19.5a25.726,25.726,0,0,0,3.3,13.341Zm6.059,2.638c-4.189-.9-7.467-7.944-7.467-16.022S38.175,4.381,42.363,3.478c.036-.007.121-.028.228-.057-2.88,3.485-4.729,9.33-4.729,16.079s1.856,12.595,4.729,16.079C42.484,35.551,42.4,35.529,42.363,35.522ZM48.934,37.1c-4.971,0-9.174-8.057-9.174-17.6s4.2-17.6,9.174-17.6,9.174,8.057,9.174,17.6S53.905,37.1,48.934,37.1Z"/>
</svg>
